<?xml version="1.0" encoding="utf-8"?>
<!-- Generator: Adobe Illustrator 16.0.0, SVG Export Plug-In . SVG Version: 6.00 Build 0)  -->
<!DOCTYPE svg PUBLIC "-//W3C//DTD SVG 1.1//EN" "http://www.w3.org/Graphics/SVG/1.1/DTD/svg11.dtd">
<svg version="1.1" id="圖層_1" xmlns="http://www.w3.org/2000/svg" xmlns:xlink="http://www.w3.org/1999/xlink" x="0px" y="0px"
	 width="14px" height="14px" viewBox="0 0 14 14" enable-background="new 0 0 14 14" xml:space="preserve">
<g>
	<circle fill="#64BE00" cx="7" cy="7" r="7"/>
	<g>
		<g>
			<path fill="#FFFFFF" d="M5.258,9.948c-0.072,0-0.146-0.029-0.201-0.084l-1.84-1.84c-0.111-0.111-0.111-0.291,0-0.402
				s0.291-0.111,0.4,0l1.641,1.641l5.125-5.125c0.111-0.111,0.291-0.111,0.402,0c0.109,0.109,0.109,0.289,0,0.4L5.459,9.864
				C5.402,9.918,5.33,9.948,5.258,9.948z"/>
			<path fill="#FFFFFF" d="M5.258,10.448c-0.206,0-0.408-0.084-0.555-0.23l-1.84-1.84c-0.148-0.148-0.23-0.345-0.23-0.555
				s0.082-0.406,0.23-0.555c0.297-0.297,0.815-0.296,1.11,0.003l1.284,1.284l4.771-4.771c0.297-0.297,0.813-0.297,1.109,0
				c0.303,0.303,0.304,0.798,0.003,1.104l-5.329,5.329C5.656,10.368,5.462,10.448,5.258,10.448z"/>
		</g>
	</g>
</g>
</svg>
