<?xml version="1.0" encoding="utf-8"?>
<!-- Generator: Adobe Illustrator 16.0.0, SVG Export Plug-In . SVG Version: 6.00 Build 0)  -->
<!DOCTYPE svg PUBLIC "-//W3C//DTD SVG 1.1//EN" "http://www.w3.org/Graphics/SVG/1.1/DTD/svg11.dtd">
<svg version="1.1" id="圖層_1" xmlns="http://www.w3.org/2000/svg" xmlns:xlink="http://www.w3.org/1999/xlink" x="0px" y="0px"
	 width="14px" height="36px" viewBox="0 0 14 36" enable-background="new 0 0 14 36" xml:space="preserve">
<g>
	<g>
		<path fill="#B2B2B2" d="M12.389,3.028v10.776H1.612V3.028H12.389 M12.55,1.417H1.45C0.649,1.417,0,2.066,0,2.867v11.1
			c0,0.801,0.649,1.45,1.45,1.45h11.1c0.801,0,1.45-0.649,1.45-1.45v-11.1C14,2.066,13.351,1.417,12.55,1.417L12.55,1.417z"/>
	</g>
</g>
<g>
	<g>
		<path fill="#B2B2B2" d="M12.389,21.945v10.776H1.612V21.945H12.389 M12.55,20.333H1.45c-0.801,0-1.45,0.648-1.45,1.449v11.1
			c0,0.801,0.649,1.451,1.45,1.451h11.1c0.801,0,1.45-0.65,1.45-1.451v-11.1C14,20.981,13.351,20.333,12.55,20.333L12.55,20.333z"/>
	</g>
</g>
<path fill="#35A6DF" d="M5.558,30.638c-0.032,0-0.064-0.002-0.097-0.005c-0.292-0.028-0.556-0.184-0.724-0.424l-1.333-1.917
	c-0.315-0.454-0.204-1.077,0.25-1.393s1.077-0.203,1.392,0.25l0.662,0.952l4.238-4.1c0.398-0.383,1.03-0.373,1.414,0.023
	s0.373,1.03-0.023,1.414l-5.083,4.917C6.066,30.538,5.816,30.638,5.558,30.638z"/>
</svg>
