<?xml version="1.0" encoding="utf-8"?>
<!-- Generator: Adobe Illustrator 16.0.0, SVG Export Plug-In . SVG Version: 6.00 Build 0)  -->
<!DOCTYPE svg PUBLIC "-//W3C//DTD SVG 1.1//EN" "http://www.w3.org/Graphics/SVG/1.1/DTD/svg11.dtd">
<svg version="1.1" id="圖層_1" xmlns="http://www.w3.org/2000/svg" xmlns:xlink="http://www.w3.org/1999/xlink" x="0px" y="0px"
	 width="14px" height="14px" viewBox="0 0 14 14" enable-background="new 0 0 14 14" xml:space="preserve">
<g>
	<circle fill="#898989" cx="7" cy="7" r="7"/>
	<g>
		<g>
			<g>
				<path fill="#FFFFFF" d="M4.035,10.231c-0.068,0-0.136-0.025-0.188-0.078c-0.104-0.104-0.104-0.271,0-0.375L9.78,3.847
					c0.104-0.104,0.271-0.104,0.374,0s0.104,0.271,0,0.375l-5.933,5.931C4.169,10.206,4.102,10.231,4.035,10.231z"/>
				<path fill="#FFFFFF" d="M4.035,10.731c-0.207,0-0.4-0.081-0.545-0.228c-0.141-0.142-0.221-0.334-0.221-0.538
					s0.08-0.396,0.225-0.541l5.933-5.931c0.289-0.288,0.792-0.29,1.081,0c0.145,0.145,0.225,0.336,0.225,0.541
					c0,0.204-0.08,0.396-0.225,0.541l-5.933,5.931C4.434,10.65,4.241,10.731,4.035,10.731z"/>
			</g>
		</g>
		<g>
			<g>
				<path fill="#FFFFFF" d="M9.966,10.231c-0.067,0-0.136-0.025-0.187-0.078L3.847,4.222c-0.104-0.104-0.104-0.271,0-0.375
					s0.271-0.104,0.374,0l5.933,5.931c0.104,0.104,0.104,0.271,0,0.375C10.102,10.206,10.034,10.231,9.966,10.231z"/>
				<path fill="#FFFFFF" d="M9.966,10.731c-0.206,0-0.405-0.084-0.547-0.231L3.494,4.576C3.349,4.431,3.269,4.239,3.269,4.035
					c0-0.205,0.08-0.396,0.225-0.541c0.288-0.289,0.792-0.289,1.081,0l5.933,5.931c0.145,0.145,0.225,0.337,0.225,0.541
					s-0.08,0.396-0.225,0.541C10.367,10.65,10.173,10.731,9.966,10.731z"/>
			</g>
		</g>
	</g>
</g>
</svg>
