<?xml version="1.0" encoding="utf-8"?>
<!-- Generator: Adobe Illustrator 16.0.0, SVG Export Plug-In . SVG Version: 6.00 Build 0)  -->
<!DOCTYPE svg PUBLIC "-//W3C//DTD SVG 1.1//EN" "http://www.w3.org/Graphics/SVG/1.1/DTD/svg11.dtd">
<svg version="1.1" id="圖層_1" xmlns="http://www.w3.org/2000/svg" xmlns:xlink="http://www.w3.org/1999/xlink" x="0px" y="0px"
	 width="25.154px" height="24.54px" viewBox="0 0 25.154 24.54" enable-background="new 0 0 25.154 24.54" xml:space="preserve">
<g>
	<g>
		<g>
			<path fill="#666767" stroke="#666767" stroke-width="0.5" stroke-miterlimit="10" d="M5.917,20.349
				c-0.16,0-0.32-0.062-0.442-0.184c-0.244-0.243-0.244-0.64,0-0.884l14-14c0.244-0.243,0.639-0.243,0.883,0
				c0.244,0.244,0.244,0.641,0,0.884l-14,14C6.237,20.287,6.077,20.349,5.917,20.349z"/>
		</g>
		<g>
			<path fill="#666767" stroke="#666767" stroke-width="0.5" stroke-miterlimit="10" d="M19.917,20.349
				c-0.16,0-0.32-0.062-0.441-0.184l-14-14c-0.244-0.243-0.244-0.64,0-0.884c0.244-0.243,0.64-0.243,0.884,0l14,14
				c0.244,0.244,0.244,0.641,0,0.884C20.237,20.287,20.077,20.349,19.917,20.349z"/>
		</g>
	</g>
	<rect x="0.417" y="0.224" fill="none" width="25" height="25"/>
</g>
</svg>
