<?xml version="1.0" encoding="utf-8"?>
<!-- Generator: Adobe Illustrator 16.0.0, SVG Export Plug-In . SVG Version: 6.00 Build 0)  -->
<!DOCTYPE svg PUBLIC "-//W3C//DTD SVG 1.1//EN" "http://www.w3.org/Graphics/SVG/1.1/DTD/svg11.dtd">
<svg version="1.1" id="圖層_1" xmlns="http://www.w3.org/2000/svg" xmlns:xlink="http://www.w3.org/1999/xlink" x="0px" y="0px"
	 width="20.536px" height="20.72px" viewBox="0 0 20.536 20.72" enable-background="new 0 0 20.536 20.72" xml:space="preserve">
<g>
	<path fill="#8A8A8A" d="M10.268,0.36c5.538,0.002,10.012,4.48,10,10.007c-0.013,5.54-4.488,10.006-10.016,9.993
		c-5.532-0.013-9.981-4.467-9.985-9.998C0.263,4.825,4.73,0.357,10.268,0.36z M13.143,7.754c0.127-0.42,0.965-0.643,1.428-0.419
		c0.149-0.095,0.277-0.211,0.428-0.261c0.184-0.06,0.254-0.151,0.227-0.285c-0.095-0.094-0.182-0.146-0.218-0.223
		c-0.065-0.137-0.156-0.173-0.295-0.145c-0.14,0.028-0.28-0.026-0.303-0.155c-0.047-0.265-0.268-0.413-0.37-0.637
		c-0.042-0.093-0.104-0.107-0.195-0.027c-0.092,0.082-0.211,0.13-0.31,0.204c-0.154,0.116-0.218-0.096-0.341-0.074
		c0.016-0.259-0.06-0.396-0.266-0.459c-0.243-0.075-0.483-0.16-0.73-0.212c-0.233-0.049-0.29,0.036-0.232,0.264
		c0.022,0.09,0.038,0.214-0.007,0.28c-0.097,0.144-0.078,0.228,0.057,0.324c0.192,0.138,0.188,0.243,0.001,0.389
		c-0.037,0.029-0.078,0.055-0.116,0.083c-0.152,0.109-0.176,0.218-0.082,0.381c0.025,0.046,0.058,0.088,0.086,0.131
		c-0.197,0.241-0.374,0.231-0.508-0.03c-0.052-0.1-0.064-0.222-0.127-0.313c-0.057-0.085-0.154-0.197-0.236-0.2
		c-0.165-0.005-0.28-0.089-0.418-0.143c-0.266-0.104-0.549-0.162-0.853-0.247C9.715,5.917,9.637,5.813,9.535,5.677
		c0.057-0.403,0.162-0.807,0.733-0.854c0.191-0.016,0.26-0.208,0.349-0.355c0.113-0.188,0.18-0.208,0.38-0.121
		c0.038,0.016,0.075,0.037,0.115,0.047c0.172,0.045,0.264-0.053,0.221-0.227c-0.013-0.05,0.015-0.115-0.007-0.157
		c-0.044-0.088-0.094-0.213-0.168-0.236C11.081,3.75,10.957,3.81,10.882,3.87c-0.063,0.051-0.075,0.163-0.13,0.23
		c-0.165,0.202-0.242,0.188-0.343-0.051c-0.087-0.208-0.107-0.213-0.273-0.094C10.01,3.891,9.89,3.83,9.762,3.765
		c0.094-0.124,0.02-0.218-0.101-0.264C9.543,3.458,9.411,3.435,9.286,3.438C9.232,3.439,9.164,3.521,9.138,3.582
		C9.126,3.609,9.196,3.686,9.244,3.719C9.3,3.757,9.377,3.767,9.44,3.8c0.067,0.036,0.127,0.084,0.203,0.136
		c-0.3,0.186-0.3,0.186-0.351,0.454C9.266,4.353,9.236,4.33,9.23,4.3C9.199,4.146,9.114,4.092,8.955,4.113
		C8.785,4.136,8.612,4.128,8.44,4.139c-0.205,0.014-0.297-0.07-0.279-0.263c0.016-0.175-0.137-0.303-0.3-0.232
		C7.488,3.807,7.11,3.962,6.754,4.158C5.881,4.636,5.156,5.289,4.558,6.083C4.439,6.243,4.332,6.412,4.241,6.545
		c0.09,0.132,0.156,0.231,0.233,0.343c0.082-0.018,0.162-0.01,0.147,0.137C4.619,7.058,4.675,7.104,4.713,7.132
		c0.177,0.13,0.36,0.251,0.532,0.387c0.111,0.089,0.104,0.186-0.021,0.264c-0.07-0.046-0.132-0.086-0.193-0.126
		C5.018,7.665,5.004,7.672,4.991,7.68c0.019,0.088,0.037,0.176,0.058,0.264c0.007,0.032,0.03,0.065,0.027,0.096
		C5.051,8.28,5,8.521,5.003,8.761c0.004,0.19,0.063,0.383,0.118,0.568c0.022,0.077,0.117,0.129,0.153,0.205
		C5.393,9.779,5.542,9.991,5.78,10.14c0.103,0.064,0.212,0.146,0.272,0.248c0.161,0.268,0.301,0.549,0.44,0.829
		c0.03,0.061-0.004,0.178,0.036,0.204c0.182,0.123,0.319,0.271,0.373,0.49c0.001,0.004,0.021,0.004,0.077,0.015
		c-0.033-0.126-0.046-0.241-0.094-0.34c-0.101-0.208-0.227-0.404-0.331-0.611c-0.06-0.117-0.098-0.245-0.146-0.368
		c0.017-0.012,0.034-0.024,0.051-0.036c0.064,0.051,0.181,0.099,0.186,0.155c0.016,0.211,0.148,0.344,0.269,0.49
		c0.128,0.155,0.259,0.31,0.382,0.47c0.037,0.047,0.037,0.141,0.08,0.164c0.303,0.16,0.41,0.43,0.45,0.745
		c0.021,0.179,0.117,0.307,0.275,0.392c0.22,0.119,0.438,0.239,0.656,0.359c0.146,0.081,0.299,0.121,0.462,0.059
		c0.188-0.07,0.341-0.014,0.456,0.14c0.207,0.274,0.488,0.382,0.827,0.382c0.129,0.282,0.283,0.545,0.559,0.718
		c0.119,0.075,0.219,0.179,0.326,0.271c0.109,0.093,0.218,0.072,0.269-0.061c0.024-0.063,0.027-0.133,0.04-0.205
		c-0.375,0.023-0.553-0.102-0.632-0.438c-0.01-0.043,0.004-0.134,0.022-0.139c0.193-0.049,0.126-0.175,0.08-0.277
		c-0.068-0.154-0.155-0.299-0.234-0.449c-0.011,0.016-0.022,0.031-0.034,0.047c-0.116,0-0.232,0-0.376,0
		c-0.024,0.013-0.084,0.043-0.167,0.086c0-0.082-0.01-0.125,0.002-0.162c0.064-0.215,0.13-0.428,0.202-0.64
		c0.06-0.173,0.012-0.247-0.172-0.248c-0.182-0.001-0.282,0.089-0.358,0.288c-0.034,0.09-0.082,0.194-0.156,0.242
		c-0.183,0.119-0.549,0.029-0.678-0.148c-0.174-0.241-0.242-0.508-0.208-0.809c0.022-0.191,0.004-0.387,0.01-0.58
		c0.001-0.043,0.017-0.099,0.046-0.123c0.093-0.077,0.205-0.133,0.293-0.214c0.134-0.125,0.388-0.187,0.552-0.115
		c0.196,0.084,0.211,0.079,0.271-0.112c0.057,0,0.116,0.017,0.158-0.003c0.181-0.083,0.334,0.012,0.493,0.063
		c0.097,0.03,0.191,0.066,0.287,0.1c0.011-0.013,0.021-0.025,0.031-0.038c0.038,0.098,0.077,0.197,0.115,0.295
		c0.045,0.116,0.079,0.238,0.139,0.346c0.024,0.047,0.103,0.063,0.156,0.094c0.025-0.049,0.073-0.097,0.073-0.145
		c0-0.185-0.011-0.369-0.03-0.552c-0.004-0.039-0.057-0.081-0.097-0.107c-0.139-0.091-0.182-0.195-0.082-0.326
		c0.079-0.103,0.19-0.193,0.306-0.251c0.182-0.092,0.344-0.19,0.416-0.391c0.028-0.078,0.053-0.157,0.083-0.245
		c-0.166-0.161-0.166-0.246,0.025-0.464c0.099-0.016,0.262-0.056,0.261-0.092c-0.005-0.196,0.132-0.206,0.259-0.249
		c0.143-0.048,0.289-0.09,0.287-0.3c-0.002-0.058,0.102-0.136,0.174-0.174c0.19-0.103,0.396-0.178,0.584-0.286
		c0.063-0.037,0.126-0.146,0.117-0.213c-0.011-0.083-0.097-0.156-0.144-0.224c0.064-0.042,0.124-0.08,0.191-0.123
		C13.726,7.386,13.558,7.425,13.143,7.754z M11.875,14.689c0.033,0.271,0.056,0.524,0.097,0.774c0.037,0.228,0.001,0.42-0.178,0.582
		c-0.092,0.082-0.186,0.18-0.23,0.291c-0.039,0.098-0.061,0.265-0.006,0.327c0.1,0.114,0.061,0.188,0.009,0.283
		c-0.071,0.134-0.127,0.268-0.042,0.433c1.527-0.271,2.814-0.971,3.9-2.115c-0.277-0.072-0.537-0.103-0.644-0.383
		c-0.015-0.037-0.073-0.058-0.111-0.085c-0.093-0.065-0.191-0.122-0.275-0.196c-0.15-0.133-0.305-0.139-0.477-0.051
		c-0.041,0.021-0.104,0.037-0.141,0.02c-0.154-0.074-0.311-0.15-0.45-0.25c-0.133-0.094-0.253-0.117-0.384-0.014
		c-0.089-0.149-0.171-0.178-0.306-0.08c-0.201,0.148-0.456,0.248-0.521,0.531C12.035,14.733,11.967,14.714,11.875,14.689z"/>
</g>
</svg>
