<?xml version="1.0" standalone="no"?><!DOCTYPE svg PUBLIC "-//W3C//DTD SVG 1.1//EN" "http://www.w3.org/Graphics/SVG/1.1/DTD/svg11.dtd"><svg t="1568186462911" class="icon" viewBox="0 0 1024 1024" version="1.1" xmlns="http://www.w3.org/2000/svg" p-id="2163" width="19" height="19" xmlns:xlink="http://www.w3.org/1999/xlink"><defs><style type="text/css"></style></defs><path d="M507.428571 676.571429l66.304-66.304-86.857142-86.857143-66.304 66.304V621.714286H475.428571v54.857143h32zM758.857143 265.142857c-5.156571-5.156571-13.714286-4.571429-18.870857 0.585143l-200.009143 200.009143c-5.156571 5.156571-5.705143 13.714286-0.585143 18.870857s13.714286 4.571429 18.870857-0.585143l200.009143-200.009143c5.156571-5.156571 5.705143-13.714286 0.585143-18.870857zM804.571429 604.562286V713.142857c0 90.843429-73.728 164.571429-164.571429 164.571429h-475.428571A164.644571 164.644571 0 0 1 0 713.142857v-475.428571C0 146.870857 73.728 73.142857 164.571429 73.142857h475.428571c22.857143 0 45.714286 4.571429 66.852571 14.299429 5.156571 2.304 9.142857 7.424 10.276572 13.129143a17.956571 17.956571 0 0 1-5.156572 16.566857l-28.013714 28.013714a17.225143 17.225143 0 0 1-18.285714 4.571429A98.633143 98.633143 0 0 0 639.963429 146.285714h-475.428572a91.684571 91.684571 0 0 0-91.428571 91.428572v475.428571c0 50.285714 41.142857 91.428571 91.428571 91.428572h475.428572c50.285714 0 91.428571-41.142857 91.428571-91.428572v-72.009143c0-4.571429 1.718857-9.142857 5.156571-12.580571l36.571429-36.571429c5.705143-5.705143 13.129143-6.838857 20.004571-3.986285s11.446857 9.142857 11.446858 16.566857zM749.714286 182.857143L914.285714 347.428571 530.285714 731.428571H365.714286v-164.571428z m253.732571 75.446857L950.893714 310.857143l-164.571428-164.571429 52.553143-52.553143a55.552 55.552 0 0 1 77.714285 0l86.857143 86.857143a55.552 55.552 0 0 1 0 77.714286z" fill="" p-id="2164"></path></svg>