<?xml version="1.0" encoding="utf-8"?>
<!-- Generator: Adobe Illustrator 16.0.0, SVG Export Plug-In . SVG Version: 6.00 Build 0)  -->
<!DOCTYPE svg PUBLIC "-//W3C//DTD SVG 1.1//EN" "http://www.w3.org/Graphics/SVG/1.1/DTD/svg11.dtd">
<svg version="1.1" id="圖層_1" xmlns="http://www.w3.org/2000/svg" xmlns:xlink="http://www.w3.org/1999/xlink" x="0px" y="0px"
	 width="30.047px" height="30.095px" viewBox="0 0 30.047 30.095" enable-background="new 0 0 30.047 30.095" xml:space="preserve">
<g>
	<g>
		<g>
			<g>
				<path fill="#00B2FF" d="M15.024,29.047c-7.72,0-14-6.28-14-14s6.28-14,14-14s14,6.28,14,14S22.744,29.047,15.024,29.047z"/>
				<path fill="#66D1FF" d="M15.024,2.047c7.168,0,13,5.832,13,13s-5.832,13-13,13s-13-5.832-13-13S7.855,2.047,15.024,2.047
					 M15.024,0.047c-8.284,0-15,6.716-15,15s6.716,15,15,15s15-6.716,15-15S23.308,0.047,15.024,0.047L15.024,0.047z"/>
			</g>
		</g>
		<g>
			<g>
				
					<line fill="none" stroke="#FFFFFF" stroke-width="1.2" stroke-linecap="round" stroke-linejoin="round" stroke-miterlimit="10" x1="12.152" y1="14.577" x2="19.669" y2="14.577"/>
				
					<polyline fill="none" stroke="#FFFFFF" stroke-width="1.2" stroke-linecap="round" stroke-linejoin="round" stroke-miterlimit="10" points="
					17.794,11.755 20.042,14.577 17.879,17.314 				"/>
				<path fill="#FFFFFF" d="M20.433,21.41c0,0.349-0.261,0.649-0.605,0.698l-9.408,1.342c-0.034,0.005-0.069,0.007-0.103,0.007
					c-0.388,0-0.702-0.316-0.702-0.705V7.343c0-0.389,0.314-0.705,0.702-0.705c0.033,0,0.068,0.002,0.103,0.007l9.408,1.342
					c0.345,0.049,0.605,0.35,0.605,0.698v1.994l1.176,1.176v-0.021V8.685c0-0.937-0.688-1.729-1.615-1.862l-9.408-1.341
					c-0.091-0.014-0.181-0.02-0.269-0.02c-1.021,0-1.878,0.828-1.878,1.881v15.408c0,1.053,0.858,1.881,1.878,1.881
					c0.088,0,0.178-0.006,0.269-0.02l9.408-1.341c0.927-0.133,1.615-0.926,1.615-1.862V17.34l-1.176,1.176V21.41z"/>
			</g>
		</g>
	</g>
</g>
</svg>
