<?xml version="1.0" encoding="utf-8"?>
<!-- Generator: Adobe Illustrator 16.0.0, SVG Export Plug-In . SVG Version: 6.00 Build 0)  -->
<!DOCTYPE svg PUBLIC "-//W3C//DTD SVG 1.1//EN" "http://www.w3.org/Graphics/SVG/1.1/DTD/svg11.dtd">
<svg version="1.1" id="圖層_1" xmlns="http://www.w3.org/2000/svg" xmlns:xlink="http://www.w3.org/1999/xlink" x="0px" y="0px"
	 width="31.02px" height="31.174px" viewBox="0 0 31.02 31.174" enable-background="new 0 0 31.02 31.174" xml:space="preserve">
<g>
	<g>
		<circle fill="#00B2FF" cx="15.51" cy="15.587" r="15"/>
		<path fill="#66D1FF" d="M15.51,2.587c7.168,0,13,5.831,13,13c0,7.168-5.832,13-13,13s-13-5.832-13-13
			C2.51,8.418,8.342,2.587,15.51,2.587 M15.51,0.587c-8.284,0-15,6.716-15,15s6.716,15,15,15s15-6.716,15-15
			S23.794,0.587,15.51,0.587L15.51,0.587z"/>
	</g>
	<g>
		<g>
			<defs>
				<circle id="SVGID_3_" cx="15.51" cy="15.587" r="12.877"/>
			</defs>
			<clipPath id="SVGID_2_">
				<use xlink:href="#SVGID_3_"  overflow="visible"/>
			</clipPath>
			<g clip-path="url(#SVGID_2_)">
				<path fill="#FFFFFF" d="M12.183,25.65c-3.089,0-5.603-2.513-5.603-5.602s2.514-5.603,5.603-5.603
					c0.456,0,0.905,0.055,1.341,0.162l0.013-0.013c-0.181-0.421-0.221-0.899-0.099-1.354l0.188-0.695
					c0.188-0.711,0.75-1.271,1.463-1.461l0.693-0.187c0.082-0.022,0.167-0.039,0.252-0.051c0.012-0.085,0.029-0.168,0.051-0.252
					l0.187-0.696c0.192-0.711,0.751-1.271,1.46-1.462l0.698-0.187c0.452-0.121,0.938-0.081,1.354,0.099
					c0.516-0.482,1.261-0.672,1.947-0.488l0.93,0.249c0.711,0.19,1.271,0.751,1.461,1.463l0.249,0.926
					c0.189,0.712-0.016,1.477-0.535,1.996l-6.212,6.213c0.107,0.438,0.162,0.886,0.162,1.341
					C17.785,23.137,15.271,25.65,12.183,25.65z M12.183,16.5c-1.957,0-3.55,1.592-3.55,3.549c0,1.956,1.593,3.548,3.55,3.548
					c1.956,0,3.548-1.592,3.548-3.548c0-0.435-0.078-0.859-0.231-1.264l-0.236-0.622l7.119-7.12l-0.245-0.939l-0.938-0.259
					l-1.316,1.309l-0.912-0.917l-0.707,0.186l-0.195,0.705l0.916,0.925l-1.746,1.746l-0.912-0.913l-0.709,0.184l-0.195,0.705
					l0.914,0.928l-2.27,2.269l-0.621-0.238C13.043,16.578,12.619,16.5,12.183,16.5z"/>
			</g>
		</g>
	</g>
</g>
</svg>
