<?xml version="1.0" encoding="utf-8"?>
<!-- Generator: Adobe Illustrator 16.0.0, SVG Export Plug-In . SVG Version: 6.00 Build 0)  -->
<!DOCTYPE svg PUBLIC "-//W3C//DTD SVG 1.1//EN" "http://www.w3.org/Graphics/SVG/1.1/DTD/svg11.dtd">
<svg version="1.1" id="圖層_1" xmlns="http://www.w3.org/2000/svg" xmlns:xlink="http://www.w3.org/1999/xlink" x="0px" y="0px"
	 width="91.042px" height="20.783px" viewBox="0 0 91.042 20.783" enable-background="new 0 0 91.042 20.783" xml:space="preserve">
<g>
	<g>
		<g>
			<g>
				<path fill="#040000" d="M14.356,17.006H6.002l4.679-6.364l5.045-6.865c0.592-0.805,0.419-1.937-0.387-2.529
					c-0.3-0.221-0.646-0.331-0.993-0.345H2.514c-0.932,0-1.687,0.755-1.687,1.688c0,0.932,0.755,1.687,1.687,1.687h8.354
					l-4.678,6.365l-5.045,6.864c-0.592,0.805-0.419,1.938,0.387,2.529c0.3,0.221,0.646,0.331,0.992,0.346h11.833
					c0.932,0,1.688-0.756,1.688-1.688S15.288,17.006,14.356,17.006z"/>
				<path fill="#040000" d="M89.106,17.007h-7.415V2.457c0-0.999-0.811-1.809-1.81-1.809s-1.809,0.81-1.809,1.809v16.116
					c0,0.021,0.005,0.041,0.006,0.061c-0.001,0.021-0.006,0.041-0.006,0.062c0,0.932,0.756,1.688,1.688,1.688h9.346
					c0.931,0,1.687-0.756,1.687-1.688C90.793,17.762,90.037,17.007,89.106,17.007z"/>
				<path fill="#040000" d="M72.096,17.006h-7.533v-4.902h5.009c0.932,0,1.688-0.756,1.688-1.687c0-0.932-0.756-1.688-1.688-1.688
					h-5.009V4.277h7.533c0.932,0,1.687-0.755,1.687-1.687c0-0.932-0.755-1.688-1.687-1.688h-9.464c-0.932,0-1.688,0.755-1.688,1.688
					c0,0.018,0,16.082,0,16.104c0,0.932,0.756,1.688,1.688,1.688h9.464c0.932,0,1.687-0.756,1.687-1.688
					S73.027,17.006,72.096,17.006z"/>
				<g>
					<path fill="#040000" d="M50.797,11.899l-2.363,2.811l4.441,5.283c0.358,0.425,0.87,0.645,1.386,0.645
						c0.411,0,0.824-0.139,1.163-0.424c0.765-0.644,0.863-1.784,0.221-2.549L50.797,11.899z"/>
					<path fill="#040000" d="M55.645,3.609c0.643-0.765,0.544-1.905-0.221-2.549c-0.339-0.285-0.752-0.424-1.163-0.424
						c-0.516,0-1.027,0.22-1.386,0.645l-4.441,5.284l2.363,2.811L55.645,3.609z"/>
					<path fill="#040000" d="M41.87,1.281C41.513,0.856,41,0.636,40.485,0.636c-0.412,0-0.824,0.14-1.164,0.424
						c-0.765,0.644-0.863,1.784-0.221,2.549l5.909,7.028l-5.909,7.027c-0.643,0.765-0.544,1.905,0.221,2.549
						c0.34,0.285,0.752,0.424,1.164,0.424c0.515,0,1.027-0.22,1.385-0.645l7.861-9.355L41.87,1.281z"/>
				</g>
				<path fill="#040000" d="M34.924,0.945c-0.829-0.558-1.954-0.337-2.511,0.492l-3.315,4.931L27.289,9.06l-1.81-2.691l-3.314-4.931
					c-0.558-0.83-1.682-1.05-2.511-0.492c-0.829,0.557-1.05,1.681-0.492,2.511l6.317,9.398v5.979c0,1,0.811,1.81,1.81,1.81
					s1.809-0.81,1.809-1.81v-5.979l6.318-9.398C35.974,2.626,35.753,1.502,34.924,0.945z"/>
			</g>
		</g>
	</g>
	<rect x="0.793" y="0.639" fill="none" width="90" height="20"/>
</g>
</svg>
