<?xml version="1.0" encoding="utf-8"?>
<!-- Generator: Adobe Illustrator 16.0.0, SVG Export Plug-In . SVG Version: 6.00 Build 0)  -->
<!DOCTYPE svg PUBLIC "-//W3C//DTD SVG 1.1//EN" "http://www.w3.org/Graphics/SVG/1.1/DTD/svg11.dtd">
<svg version="1.1" id="圖層_1" xmlns="http://www.w3.org/2000/svg" xmlns:xlink="http://www.w3.org/1999/xlink" x="0px" y="0px"
	 width="30.047px" height="30.095px" viewBox="0 0 30.047 30.095" enable-background="new 0 0 30.047 30.095" xml:space="preserve">
<g>
	<g>
		<circle fill="#00B2FF" cx="15.023" cy="15.047" r="15"/>
		<path fill="#66D1FF" d="M15.023,2.047c7.169,0,13,5.832,13,13s-5.831,13-13,13c-7.168,0-13-5.832-13-13S7.855,2.047,15.023,2.047
			 M15.023,0.047c-8.284,0-15,6.716-15,15s6.716,15,15,15s15-6.716,15-15S23.308,0.047,15.023,0.047L15.023,0.047z"/>
	</g>
	<g>
		<g>
			<path fill="#FFFFFF" d="M23.188,20.721L13.084,10.617c-0.108-0.108-0.256-0.169-0.411-0.169h-0.001l-1.849,0.004
				c-0.321,0.001-0.578,0.266-0.569,0.586l0.047,1.784c0.004,0.149,0.064,0.29,0.169,0.396l10.112,10.111
				c0.223,0.223,0.516,0.335,0.808,0.335s0.585-0.112,0.808-0.335l0.991-0.991C23.635,21.891,23.635,21.167,23.188,20.721z
				 M11.394,11.576l1.056-0.003l1.385,1.385l-1.016,1.016l-1.398-1.397L11.394,11.576z M22.394,21.542l-0.992,0.991
				c-0.002,0.003-0.005,0.005-0.005,0.005c-0.014,0-0.017-0.002-0.02-0.005l-2.031-2.031l1.016-1.016l2.032,2.031
				C22.4,21.524,22.4,21.535,22.394,21.542z"/>
			<g>
				<circle fill="#FFFFFF" cx="13.931" cy="12.008" r="0.228"/>
				<circle fill="#FFFFFF" cx="13.091" cy="9.103" r="0.33"/>
				<circle fill="#FFFFFF" cx="10.423" cy="7.668" r="0.454"/>
				<circle fill="#FFFFFF" cx="7.54" cy="8.565" r="0.586"/>
				<circle fill="#FFFFFF" cx="6.158" cy="11.26" r="0.722"/>
				<circle fill="#FFFFFF" cx="7.212" cy="14.057" r="0.86"/>
				<circle fill="#FFFFFF" cx="9.941" cy="15.475" r="0.999"/>
			</g>
		</g>
	</g>
</g>
</svg>
