<?xml version="1.0" encoding="utf-8"?>
<!-- Generator: Adobe Illustrator 16.0.0, SVG Export Plug-In . SVG Version: 6.00 Build 0)  -->
<!DOCTYPE svg PUBLIC "-//W3C//DTD SVG 1.1//EN" "http://www.w3.org/Graphics/SVG/1.1/DTD/svg11.dtd">
<svg version="1.1" id="圖層_1" xmlns="http://www.w3.org/2000/svg" xmlns:xlink="http://www.w3.org/1999/xlink" x="0px" y="0px"
	 width="30px" height="30px" viewBox="0 0 30 30" enable-background="new 0 0 30 30" xml:space="preserve">
<g>
	<g>
		<g>
			<path fill="#FFFFFF" stroke="#FFFFFF" stroke-miterlimit="10" d="M23.4,7.45h-18c-0.414,0-0.75-0.336-0.75-0.75
				S4.986,5.95,5.4,5.95h18c0.415,0,0.75,0.336,0.75,0.75S23.815,7.45,23.4,7.45z"/>
		</g>
		<g>
			<path fill="#FFFFFF" stroke="#FFFFFF" stroke-miterlimit="10" d="M23.4,15.25h-18c-0.414,0-0.75-0.336-0.75-0.75
				s0.336-0.75,0.75-0.75h18c0.415,0,0.75,0.336,0.75,0.75S23.815,15.25,23.4,15.25z"/>
		</g>
		<g>
			<path fill="#FFFFFF" stroke="#FFFFFF" stroke-miterlimit="10" d="M23.4,23.049h-18c-0.414,0-0.75-0.336-0.75-0.75
				s0.336-0.75,0.75-0.75h18c0.415,0,0.75,0.336,0.75,0.75S23.815,23.049,23.4,23.049z"/>
		</g>
	</g>
	<rect x="0" fill="none" width="30" height="30"/>
</g>
</svg>
