<?xml version="1.0" encoding="utf-8"?>
<!-- Generator: Adobe Illustrator 16.0.0, SVG Export Plug-In . SVG Version: 6.00 Build 0)  -->
<!DOCTYPE svg PUBLIC "-//W3C//DTD SVG 1.1//EN" "http://www.w3.org/Graphics/SVG/1.1/DTD/svg11.dtd">
<svg version="1.1" id="圖層_1" xmlns="http://www.w3.org/2000/svg" xmlns:xlink="http://www.w3.org/1999/xlink" x="0px" y="0px"
	 width="30px" height="37px" viewBox="0 0 30 37" enable-background="new 0 0 30 37" xml:space="preserve">
<g>
	<rect x="0" y="7" fill="#B5B4B5" width="30" height="30"/>
	<polygon fill="#898989" points="23,7 30,7 23,0 	"/>
	<g>
		<path fill="#FFFFFF" d="M11.681,31.637c-0.256,0-0.512-0.098-0.707-0.293c-0.391-0.391-0.391-1.023,0-1.414L18.905,22
			l-7.931-7.931c-0.391-0.391-0.391-1.023,0-1.414s1.023-0.391,1.414,0l8.638,8.638c0.391,0.391,0.391,1.023,0,1.414l-8.638,8.637
			C12.193,31.54,11.937,31.637,11.681,31.637z"/>
		<rect x="10.323" y="10.646" fill="none" width="11.355" height="22.708"/>
	</g>
</g>
</svg>
