<?xml version="1.0" encoding="utf-8"?>
<!-- Generator: Adobe Illustrator 16.0.0, SVG Export Plug-In . SVG Version: 6.00 Build 0)  -->
<!DOCTYPE svg PUBLIC "-//W3C//DTD SVG 1.1//EN" "http://www.w3.org/Graphics/SVG/1.1/DTD/svg11.dtd">
<svg version="1.1" id="圖層_1" xmlns="http://www.w3.org/2000/svg" xmlns:xlink="http://www.w3.org/1999/xlink" x="0px" y="0px"
	 width="30.047px" height="30.095px" viewBox="0 0 30.047 30.095" enable-background="new 0 0 30.047 30.095" xml:space="preserve">
<g>
	<g>
		<g>
			<path fill="#00B2FF" d="M15.023,29.047c-7.72,0-14-6.28-14-14s6.28-14,14-14s14,6.28,14,14S22.743,29.047,15.023,29.047z"/>
			<path fill="#66D1FF" d="M15.023,2.047c7.168,0,13,5.832,13,13s-5.832,13-13,13s-13-5.832-13-13S7.855,2.047,15.023,2.047
				 M15.023,0.047c-8.284,0-15,6.716-15,15s6.716,15,15,15s15-6.716,15-15S23.308,0.047,15.023,0.047L15.023,0.047z"/>
		</g>
	</g>
	<g>
		<g>
			<circle fill="#FFFFFF" cx="15.024" cy="8.893" r="1.846"/>
			<rect x="13.793" y="13.202" fill="#FFFFFF" width="2.461" height="9.846"/>
		</g>
	</g>
</g>
</svg>
