<?xml version="1.0" encoding="utf-8"?>
<!-- Generator: Adobe Illustrator 16.0.0, SVG Export Plug-In . SVG Version: 6.00 Build 0)  -->
<!DOCTYPE svg PUBLIC "-//W3C//DTD SVG 1.1//EN" "http://www.w3.org/Graphics/SVG/1.1/DTD/svg11.dtd">
<svg version="1.1" id="圖層_1" xmlns="http://www.w3.org/2000/svg" xmlns:xlink="http://www.w3.org/1999/xlink" x="0px" y="0px"
	 width="18px" height="40px" viewBox="0 0 18 40" enable-background="new 0 0 18 40" xml:space="preserve">
<g>
	<g>
		<g>
			<circle fill="#38A6DF" cx="9" cy="9.896" r="7"/>
		</g>
	</g>
	<circle fill="#FFFFFF" cx="9" cy="9.896" r="2.593"/>
</g>
<g>
	<g>
		<g opacity="0.8">
			<path fill="#FFFFFF" d="M9,22.516c3.866,0,7,3.134,7,7s-3.134,7-7,7s-7-3.134-7-7S5.134,22.516,9,22.516 M9,20.904
				c-4.749,0-8.612,3.863-8.612,8.611S4.251,38.127,9,38.127s8.611-3.863,8.611-8.611S13.749,20.904,9,20.904L9,20.904z"/>
		</g>
	</g>
	<path fill="#B2B2B2" d="M9,24.127c2.971,0,5.389,2.418,5.389,5.389S11.971,34.904,9,34.904s-5.388-2.418-5.388-5.389
		S6.029,24.127,9,24.127 M9,22.516c-3.866,0-7,3.134-7,7s3.134,7,7,7s7-3.134,7-7S12.866,22.516,9,22.516L9,22.516z"/>
</g>
</svg>
