<?xml version="1.0" encoding="utf-8"?>
<!-- Generator: Adobe Illustrator 16.0.0, SVG Export Plug-In . SVG Version: 6.00 Build 0)  -->
<!DOCTYPE svg PUBLIC "-//W3C//DTD SVG 1.1//EN" "http://www.w3.org/Graphics/SVG/1.1/DTD/svg11.dtd">
<svg version="1.1" id="圖層_1" xmlns="http://www.w3.org/2000/svg" xmlns:xlink="http://www.w3.org/1999/xlink" x="0px" y="0px"
	 width="31.019px" height="31.174px" viewBox="0 0 31.019 31.174" enable-background="new 0 0 31.019 31.174" xml:space="preserve">
<g>
	<g>
		<circle fill="#00B2FF" cx="15.509" cy="15.587" r="15"/>
		<path fill="#66D1FF" d="M15.51,2.587c7.168,0,13,5.832,13,13s-5.832,13-13,13s-13.001-5.832-13.001-13S8.342,2.587,15.51,2.587
			 M15.51,0.587c-8.285,0-15.001,6.716-15.001,15c0,8.284,6.716,15,15.001,15c8.283,0,15-6.717,15-15
			C30.51,7.303,23.793,0.587,15.51,0.587L15.51,0.587z"/>
	</g>
	<g>
		<path fill="#FFFFFF" d="M10.404,14.229c-0.83,0-1.721-0.113-2.68-0.365c-0.549-0.145-0.875-0.707-0.73-1.255
			c0.145-0.549,0.707-0.877,1.254-0.731c6.256,1.65,8.35-4.093,8.436-4.338c0.188-0.535,0.771-0.817,1.309-0.628
			c0.535,0.188,0.816,0.774,0.629,1.309C17.814,10.516,15.16,14.229,10.404,14.229z"/>
		<g>
			<defs>
				<circle id="SVGID_1_" cx="15.509" cy="15.587" r="12.877"/>
			</defs>
			<clipPath id="SVGID_2_">
				<use xlink:href="#SVGID_1_"  overflow="visible"/>
			</clipPath>
			<path clip-path="url(#SVGID_2_)" fill="#FFFFFF" d="M15.51,44.612c-3.611,0-6.549-2.938-6.549-6.55V27.017
				c0-1.96,0.85-3.699,2.527-5.167l2.412-2.02l-2.395-2.002c-1.695-1.482-2.545-3.221-2.545-5.182c0-3.604,2.926-6.538,6.525-6.55
				c0.006,0,0.012,0,0.016,0c0.006,0,0.01-0.001,0.016,0c3.602,0.012,6.527,2.946,6.527,6.55c0,1.962-0.85,3.701-2.527,5.167
				l-2.414,2.017l2.402,2.009c1.689,1.477,2.539,3.216,2.539,5.177l0.014,11.043C22.059,41.674,19.121,44.612,15.51,44.612z
				 M15.502,21.169l-2.674,2.237c-1.217,1.065-1.814,2.25-1.814,3.611v11.045c0,2.479,2.018,4.497,4.496,4.497
				s4.496-2.017,4.496-4.497l-0.014-11.043c0-1.363-0.598-2.548-1.826-3.623L15.502,21.169z M15.502,8.15
				c-2.475,0.004-4.488,2.019-4.488,4.496c0,1.362,0.598,2.546,1.826,3.621l2.662,2.225l2.682-2.24
				c1.211-1.059,1.809-2.244,1.809-3.606C19.992,10.169,17.979,8.154,15.502,8.15z"/>
		</g>
	</g>
</g>
</svg>
