<?xml version="1.0" standalone="no"?><!DOCTYPE svg PUBLIC "-//W3C//DTD SVG 1.1//EN" "http://www.w3.org/Graphics/SVG/1.1/DTD/svg11.dtd"><svg class="icon" width="32px" height="20.92px" viewBox="0 0 1566 1024" version="1.1" xmlns="http://www.w3.org/2000/svg"><path d="M0 1024h1566.117647V0H0z" fill="#FFFFFF" /><path d="M0 66.258824h1566.117647V0H0v66.258824z m0 138.541176h1566.117647V138.541176H0v66.258824z m0 138.541176h1566.117647V271.058824H0v72.282352z m0 132.517648h1566.117647V409.6H0v66.258824z m0 138.541176h1566.117647V548.141176H0v66.258824z m0 138.541176h1566.117647v-66.258823H0v66.258823z m0 132.517648h1566.117647v-66.258824H0v66.258824zM0 1024h1566.117647v-66.258824H0V1024z" fill="#D02F44" /><path d="M0 614.4h783.058824V0H0z" fill="#46467F" /><path d="M608.376471 421.647059l-30.117647 18.070588 12.047058-36.141176-30.117647-18.070589h36.141177l12.047059-36.141176 12.047058 36.141176h36.141177l-30.117647 24.094118 12.047059 36.141176-30.117647-24.094117zM391.529412 421.647059l-24.094118 18.070588 12.047059-36.141176-30.117647-18.070589h36.141176l12.047059-36.141176 12.047059 36.141176h36.141176l-30.117647 24.094118 6.02353 30.117647-30.117647-18.070588zM180.705882 421.647059l-30.117647 18.070588 12.047059-36.141176-30.117647-18.070589h36.141177l12.047058-36.141176 12.047059 36.141176h36.141177l-30.117647 24.094118 12.047058 36.141176L180.705882 421.647059z m493.929412 96.37647l-30.117647 24.094118 12.047059-36.141176-30.117647-24.094118h36.141176l12.047059-36.141177 12.047059 36.141177h36.141176l-30.117647 24.094118 12.047059 36.141176-30.117647-24.094118z m-186.729412 0l-30.117647 18.070589 12.047059-36.141177-30.117647-18.070588h36.141177l12.047058-36.141177 12.047059 36.141177h36.141177l-30.117647 24.094118 12.047058 36.141176-30.117647-24.094118z m-192.752941 0l-30.117647 18.070589 12.047059-36.141177-30.117647-18.070588h36.141176l12.047059-36.141177 12.047059 36.141177h36.141176l-30.117647 24.094118 12.047059 36.141176-30.117647-24.094118z m-186.729412 0l-30.117647 18.070589 12.047059-36.141177L60.235294 481.882353h36.141177l12.047058-36.141177 12.047059 36.141177h36.141177l-30.117647 24.094118 12.047058 36.141176-30.117647-24.094118z m566.211765-192.752941l-30.117647 24.094118 12.047059-36.141177-30.117647-24.094117h36.141176l12.047059-36.141177 12.047059 36.141177h36.141176l-30.117647 24.094117 12.047059 36.141177-30.117647-24.094118z m-186.729412 0l-30.117647 18.070588 12.047059-36.141176-30.117647-18.070588h36.141177l12.047058-36.141177 12.047059 36.141177h36.141177l-30.117647 24.094117 12.047058 36.141177-30.117647-24.094118z m-192.752941 0l-30.117647 18.070588 12.047059-36.141176-30.117647-18.070588h36.141176l12.047059-36.141177 12.047059 36.141177h36.141176l-30.117647 18.070588 12.047059 36.141176-30.117647-18.070588z m-186.729412 0l-30.117647 18.070588 12.047059-36.141176-30.117647-18.070588h36.141177l12.047058-36.141177 12.047059 36.141177h36.141177l-30.117647 24.094117 12.047058 36.141177-30.117647-24.094118z m499.952942-96.37647l-30.117647 18.070588 12.047058-36.141177-30.117647-18.070588h36.141177l12.047059-36.141176 12.047058 36.141176h36.141177l-30.117647 24.094118 12.047059 36.141176-30.117647-24.094117z m-216.847059 0l-24.094118 18.070588 12.047059-36.141177-30.117647-18.070588h36.141176l12.047059-36.141176 12.047059 36.141176h36.141176l-30.117647 18.070588 6.02353 36.141177-30.117647-18.070588zM180.705882 228.894118l-30.117647 18.070588 12.047059-36.141177-30.117647-18.070588h36.141177l12.047058-36.141176 12.047059 36.141176h36.141177l-30.117647 18.070588 12.047058 36.141177-30.117647-18.070588z m493.929412-96.376471l-30.117647 24.094118 12.047059-36.141177-30.117647-24.094117h36.141176l12.047059-36.141177 12.047059 36.141177h36.141176l-30.117647 24.094117 12.047059 36.141177-30.117647-24.094118z m-186.729412 0l-30.117647 18.070588 12.047059-36.141176-30.117647-18.070588h36.141177l12.047058-36.141177 12.047059 36.141177h36.141177l-30.117647 18.070588 12.047058 36.141176-30.117647-18.070588z m-192.752941 0l-30.117647 18.070588 12.047059-36.141176-30.117647-18.070588h36.141176l12.047059-36.141177 12.047059 36.141177h36.141176l-30.117647 18.070588 12.047059 36.141176-30.117647-18.070588z m-186.729412 0l-30.117647 18.070588 12.047059-36.141176-30.117647-18.070588h36.141177l12.047058-36.141177 12.047059 36.141177h36.141177l-30.117647 18.070588 12.047058 36.141176-30.117647-18.070588z" fill="#FFFFFF" /></svg>