<?xml version="1.0" standalone="no"?><!DOCTYPE svg PUBLIC "-//W3C//DTD SVG 1.1//EN" "http://www.w3.org/Graphics/SVG/1.1/DTD/svg11.dtd"><svg class="icon" width="32px" height="20.92px" viewBox="0 0 1566 1024" version="1.1" xmlns="http://www.w3.org/2000/svg"><path d="M0 1024h1566.117647V0H0z" fill="#D71618" /><path d="M777.035294 566.211765l48.188235 30.117647-24.094117-54.211765 42.164706-36.141176h-54.211765l-18.070588-54.211765-18.070589 54.211765h-54.211764l48.188235 36.141176-18.070588 54.211765 48.188235-30.117647z m12.047059-204.8l54.211765 6.023529-42.164706-42.164706 24.094117-48.188235-42.164705 24.094118-36.141177-42.164706 6.023529 54.211764-48.188235 24.094118 54.211765 12.047059 6.023529 54.211765 24.094118-42.164706zM662.588235 686.682353l54.211765-12.047059-54.211765-24.094118 6.02353-54.211764-36.141177 42.164706-54.211764-24.094118 30.117647 48.188235-36.141177 42.164706 54.211765-12.047059 30.117647 48.188236 6.023529-54.211765z m0-475.858824l54.211765-12.047058-54.211765-24.094118 6.02353-54.211765-36.141177 42.164706-54.211764-18.070588 30.117647 48.188235-36.141177 42.164706 54.211765-12.047059 30.117647 48.188236 6.023529-60.235295zM313.223529 475.858824l120.470589 84.329411L385.505882 421.647059l120.470589-90.352941H355.388235l-42.164706-144.564706-48.188235 144.564706H120.470588L240.941176 421.647059l-48.188235 138.541176 120.470588-84.329411z" fill="#FFF100" /></svg>