<?xml version="1.0" encoding="utf-8"?>
<!-- Generator: Adobe Illustrator 16.0.0, SVG Export Plug-In . SVG Version: 6.00 Build 0)  -->
<!DOCTYPE svg PUBLIC "-//W3C//DTD SVG 1.1//EN" "http://www.w3.org/Graphics/SVG/1.1/DTD/svg11.dtd">
<svg version="1.1" id="圖層_1" xmlns="http://www.w3.org/2000/svg" xmlns:xlink="http://www.w3.org/1999/xlink" x="0px" y="0px"
	 width="25px" height="25px" viewBox="0 0 25 25" enable-background="new 0 0 25 25" xml:space="preserve">
<g>
	<path fill="#FFFFFF" d="M4.117,17.375c-0.352,0-0.637-0.285-0.637-0.637V8.846c0-0.352,0.285-0.635,0.637-0.635h14.771
		c0.352,0,0.637,0.283,0.637,0.635v0.766c0.004,0.027,0.01,0.055,0.014,0.082l0.111,0.756l0.789-0.307l0.008-0.004l0.01-0.004
		c0.162-0.057,0.33-0.086,0.502-0.086c0.016,0,0.029,0.002,0.045,0.002V6.014C21.004,4.901,20.102,4,18.99,4H4.016
		C2.902,4,2,4.901,2,6.014v10.68c0,1.113,0.902,2.014,2.016,2.014h7.369l-0.791-1.332H4.117z M18.262,5.805
		c0-0.258,0.211-0.471,0.471-0.471h0.322c0.258,0,0.471,0.213,0.471,0.471v0.355c0,0.258-0.213,0.471-0.471,0.471h-0.322
		c-0.26,0-0.471-0.213-0.471-0.471V5.805z M16.32,5.805c0-0.258,0.213-0.471,0.471-0.471h0.322c0.26,0,0.471,0.213,0.471,0.471
		v0.355c0,0.258-0.211,0.471-0.471,0.471h-0.322c-0.258,0-0.471-0.213-0.471-0.471V5.805z M3.98,5.465h10.766
		c0.275,0,0.5,0.225,0.5,0.502s-0.225,0.502-0.5,0.502H3.98c-0.277,0-0.5-0.225-0.5-0.502S3.703,5.465,3.98,5.465z"/>
	<g>
		<g>
			<path fill="#FFFFFF" d="M18.072,21.002h-2.209c-0.447,0-0.828-0.328-0.889-0.764l-0.16-1.08c-0.152-0.076-0.301-0.16-0.445-0.254
				l-1.084,0.424c-0.416,0.146-0.871-0.02-1.086-0.393l-1.109-1.867c-0.219-0.393-0.123-0.873,0.23-1.145l0.891-0.678
				c-0.006-0.084-0.008-0.162-0.008-0.24c0-0.076,0.002-0.156,0.008-0.238l-0.889-0.676c-0.361-0.277-0.455-0.775-0.223-1.162
				l1.1-1.852c0.221-0.383,0.682-0.547,1.1-0.387l0.004,0.002l1.068,0.416c0.146-0.094,0.295-0.18,0.443-0.254l0.16-1.08
				c0.061-0.436,0.441-0.764,0.889-0.764h2.209c0.447,0,0.83,0.328,0.889,0.764l0.16,1.08c0.152,0.076,0.301,0.16,0.445,0.254
				l1.084-0.424c0.416-0.146,0.871,0.018,1.086,0.393l1.109,1.867c0.221,0.393,0.123,0.873-0.23,1.145l-0.891,0.678
				c0.006,0.074,0.008,0.156,0.008,0.238c0,0.084-0.002,0.164-0.008,0.24l0.891,0.678c0.354,0.271,0.451,0.752,0.23,1.145
				l-0.008,0.014l-1.102,1.854c-0.221,0.383-0.682,0.547-1.1,0.387l-0.004-0.002l-1.068-0.416c-0.146,0.094-0.295,0.178-0.443,0.252
				l-0.16,1.082C18.902,20.674,18.52,21.002,18.072,21.002z M16.166,19.752h1.604l0.217-1.471l0.334-0.135
				c0.266-0.105,0.525-0.252,0.797-0.449l0.275-0.203l1.416,0.555l0.789-1.328l-1.193-0.91l0.045-0.357
				c0.023-0.184,0.033-0.316,0.033-0.447c0-0.129-0.01-0.264-0.033-0.445l-0.045-0.359l1.193-0.908l-0.789-1.328l-1.42,0.555
				l-0.277-0.207c-0.254-0.189-0.512-0.336-0.791-0.447l-0.334-0.133l-0.217-1.471h-1.604l-0.217,1.471l-0.334,0.133
				c-0.266,0.105-0.525,0.254-0.797,0.451l-0.275,0.201l-1.416-0.553l-0.789,1.328l1.193,0.908l-0.045,0.359
				c-0.023,0.178-0.033,0.32-0.033,0.445c0,0.127,0.01,0.27,0.033,0.447l0.045,0.357l-1.193,0.91l0.789,1.328l1.42-0.557
				l0.277,0.209c0.254,0.189,0.512,0.334,0.791,0.445l0.334,0.135L16.166,19.752z"/>
		</g>
		<g>
			<path fill="#FFFFFF" d="M17.008,17.422c-1.33,0-2.414-1.084-2.414-2.416c0-1.33,1.084-2.414,2.414-2.414
				c1.332,0,2.416,1.084,2.416,2.414C19.424,16.338,18.34,17.422,17.008,17.422z M17.008,13.842c-0.643,0-1.164,0.521-1.164,1.164
				s0.521,1.166,1.164,1.166s1.166-0.523,1.166-1.166S17.65,13.842,17.008,13.842z"/>
		</g>
	</g>
	<rect fill="none" width="25" height="25"/>
</g>
</svg>
