<?xml version="1.0" encoding="utf-8"?>
<!-- Generator: Adobe Illustrator 16.0.0, SVG Export Plug-In . SVG Version: 6.00 Build 0)  -->
<!DOCTYPE svg PUBLIC "-//W3C//DTD SVG 1.1//EN" "http://www.w3.org/Graphics/SVG/1.1/DTD/svg11.dtd">
<svg version="1.1" id="圖層_1" xmlns="http://www.w3.org/2000/svg" xmlns:xlink="http://www.w3.org/1999/xlink" x="0px" y="0px"
	 width="25px" height="25px" viewBox="0 0 25 25" enable-background="new 0 0 25 25" xml:space="preserve">
<g>
	<g>
		<path fill="#FFFFFF" d="M14.047,3.25l0.317,2.156l0.104,0.711l0.67,0.268c0.543,0.217,1.046,0.5,1.537,0.867l0.557,0.418
			l0.647-0.254l2.123-0.828l1.519,2.553l-1.755,1.336l-0.575,0.438l0.092,0.715c0.046,0.357,0.065,0.617,0.065,0.871
			c0,0.252-0.02,0.512-0.065,0.869l-0.092,0.718l0.575,0.438l1.755,1.334l-1.519,2.555l-2.123-0.83l-0.638-0.248l-0.554,0.402
			c-0.528,0.387-1.035,0.674-1.55,0.879l-0.67,0.266l-0.104,0.713l-0.317,2.156h-3.088l-0.317-2.156l-0.104-0.713l-0.67-0.266
			C9.324,18.4,8.821,18.115,8.33,17.748l-0.557-0.416l-0.647,0.252l-2.124,0.83l-1.518-2.555l1.755-1.334l0.575-0.438L5.723,13.37
			c-0.045-0.348-0.066-0.623-0.066-0.869s0.021-0.523,0.066-0.871l0.092-0.715l-0.575-0.438L3.484,9.141l1.518-2.553l2.124,0.828
			l0.638,0.25l0.554-0.404c0.528-0.385,1.035-0.672,1.55-0.877l0.67-0.268l0.104-0.711l0.317-2.156H14.047 M14.662,2h-4.318
			c-0.27,0-0.496,0.189-0.529,0.441l-0.41,2.781C8.746,5.487,8.143,5.842,7.58,6.252L4.893,5.202
			C4.828,5.178,4.762,5.167,4.696,5.167c-0.187,0-0.366,0.096-0.462,0.268L2.075,9.067C1.936,9.297,2,9.581,2.205,9.739l2.277,1.732
			c-0.043,0.336-0.076,0.682-0.076,1.029c0,0.346,0.033,0.693,0.076,1.029l-2.277,1.733c-0.205,0.156-0.26,0.439-0.13,0.672
			l2.159,3.633c0.097,0.172,0.283,0.262,0.471,0.262c0.063,0,0.127-0.01,0.188-0.031L7.58,18.75c0.563,0.42,1.166,0.766,1.824,1.027
			l0.41,2.783c0.033,0.252,0.26,0.441,0.529,0.441h4.318c0.27,0,0.496-0.189,0.529-0.441l0.41-2.783
			c0.658-0.262,1.262-0.619,1.824-1.027l2.688,1.049c0.064,0.025,0.131,0.037,0.196,0.037c0.187,0,0.366-0.098,0.462-0.268
			l2.159-3.633c0.13-0.232,0.075-0.516-0.13-0.672l-2.277-1.733c0.043-0.336,0.075-0.672,0.075-1.029s-0.032-0.693-0.075-1.029
			l2.277-1.732c0.205-0.158,0.26-0.441,0.13-0.672l-2.159-3.633c-0.097-0.172-0.283-0.264-0.471-0.264
			c-0.063,0-0.127,0.012-0.188,0.031l-2.688,1.051c-0.563-0.42-1.166-0.766-1.824-1.029l-0.41-2.781C15.158,2.19,14.932,2,14.662,2
			L14.662,2z"/>
		<path fill="#FFFFFF" d="M12.5,9c1.934,0,3.5,1.566,3.5,3.5c0,1.935-1.566,3.501-3.5,3.501c-1.933,0-3.5-1.566-3.5-3.501
			C9,10.567,10.567,9,12.5,9 M12.5,7.75c-1.268,0-2.461,0.494-3.358,1.391S7.75,11.231,7.75,12.5c0,1.268,0.494,2.462,1.392,3.358
			c0.897,0.898,2.091,1.393,3.358,1.393c1.27,0,2.463-0.494,3.359-1.393c0.896-0.896,1.391-2.091,1.391-3.358
			c0-1.27-0.494-2.463-1.391-3.359S13.77,7.75,12.5,7.75L12.5,7.75z"/>
	</g>
	<rect y="0" fill="none" width="25" height="25.001"/>
</g>
</svg>
