<?xml version="1.0" encoding="utf-8"?>
<!-- Generator: Adobe Illustrator 16.0.0, SVG Export Plug-In . SVG Version: 6.00 Build 0)  -->
<!DOCTYPE svg PUBLIC "-//W3C//DTD SVG 1.1//EN" "http://www.w3.org/Graphics/SVG/1.1/DTD/svg11.dtd">
<svg version="1.1" id="圖層_1" xmlns="http://www.w3.org/2000/svg" xmlns:xlink="http://www.w3.org/1999/xlink" x="0px" y="0px"
	 width="25px" height="25px" viewBox="0 0 25 25" enable-background="new 0 0 25 25" xml:space="preserve">
<g>
	<g>
		<path fill="#FFFFFF" d="M21.75,5.25v11.5H3.25V5.25H21.75 M21.75,4H3.25C2.56,4,2,4.559,2,5.25v11.5C2,17.44,2.56,18,3.25,18h18.5
			C22.44,18,23,17.44,23,16.75V5.25C23,4.559,22.44,4,21.75,4L21.75,4z"/>
		<rect x="4" y="6" opacity="0.7" fill="#FFFFFF" width="17" height="10"/>
		<path fill="#FFFFFF" d="M17.392,19.819h-0.5l-0.5-2.344h-7l-0.5,2.344h-0.5c-0.553,0-1,0-1,0.781l0,0h11l0,0
			C18.392,20.6,17.943,19.819,17.392,19.819z"/>
	</g>
	<rect y="0" fill="none" width="25" height="25"/>
</g>
</svg>
