<?xml version="1.0" encoding="utf-8"?>
<!-- Generator: Adobe Illustrator 16.0.0, SVG Export Plug-In . SVG Version: 6.00 Build 0)  -->
<!DOCTYPE svg PUBLIC "-//W3C//DTD SVG 1.1//EN" "http://www.w3.org/Graphics/SVG/1.1/DTD/svg11.dtd">
<svg version="1.1" id="圖層_1" xmlns="http://www.w3.org/2000/svg" xmlns:xlink="http://www.w3.org/1999/xlink" x="0px" y="0px"
	 width="26px" height="26px" viewBox="0 0 26 26" enable-background="new 0 0 26 26" xml:space="preserve">
<g>
	<rect x="0" fill="none" width="26" height="26"/>
	<g>
		<g>
			<path fill="#666767" d="M14.022,7.54H4.81c-0.358,0-0.65-0.291-0.65-0.65c0-0.358,0.292-0.649,0.65-0.649h9.212
				c0.359,0,0.65,0.291,0.65,0.649C14.672,7.249,14.381,7.54,14.022,7.54z"/>
		</g>
		<circle fill="#666767" cx="16.25" cy="6.89" r="0.65"/>
		<circle fill="#666767" cx="18.07" cy="6.89" r="0.649"/>
		<path fill="#666767" d="M16.944,11.439L16.944,11.439c-0.254-0.253-0.26-0.866,0.217-1.343c0.433-0.434,1.306-0.427,1.559-0.173
			l0,0V8.792c0-0.144-0.116-0.26-0.26-0.26H4.42c-0.144,0-0.26,0.116-0.26,0.26v7.587c0,0.145,0.116,0.26,0.26,0.26h8.753
			C13.289,14.403,14.817,11.909,16.944,11.439z"/>
		<path fill="#666767" d="M20.799,11.613V6.171c0-1.123-0.918-2.042-2.041-2.042H4.123C3,4.129,2.081,5.048,2.081,6.171v10.498
			c0,1.123,0.919,2.041,2.042,2.041h9.441c-0.163-0.408-0.257-0.846-0.304-1.299H4.123c-0.402,0-0.742-0.34-0.742-0.742V6.171
			c0-0.401,0.34-0.741,0.742-0.741h14.636c0.402,0,0.742,0.34,0.742,0.741v4.186L20.799,11.613z"/>
		<path fill="#666767" d="M23.278,16.245c-0.359,0-0.65,0.291-0.65,0.65c0,2-1.627,3.627-3.627,3.627
			c-1.338,0-2.509-0.73-3.137-1.813c-0.229-0.393-0.385-0.832-0.451-1.299c-0.025-0.168-0.037-0.34-0.037-0.516
			c0-0.086,0.003-0.17,0.009-0.256c0.103-1.465,1.079-2.693,2.412-3.164l-0.067,0.067c-0.254,0.254-0.254,0.665,0,0.918
			c0.127,0.127,0.293,0.191,0.459,0.191c0.167,0,0.333-0.064,0.46-0.191l0.071-0.072L19.5,13.61l0.441-0.442
			c0.121-0.121,0.189-0.287,0.189-0.459c0-0.173-0.068-0.338-0.189-0.46L19.5,11.808l-0.781-0.78l-0.071-0.072
			c-0.254-0.253-0.665-0.253-0.919,0c-0.254,0.254-0.254,0.666,0,0.92l0.209,0.209c-2.127,0.47-3.741,2.319-3.855,4.555
			c-0.005,0.086-0.008,0.17-0.008,0.256c0,0.174,0.01,0.346,0.027,0.516c0.047,0.453,0.156,0.891,0.319,1.299
			c0.724,1.822,2.504,3.111,4.579,3.111c2.717,0,4.928-2.209,4.928-4.926C23.928,16.536,23.637,16.245,23.278,16.245z"/>
	</g>
</g>
</svg>
