<?xml version="1.0" encoding="utf-8"?>
<!-- Generator: Adobe Illustrator 16.0.0, SVG Export Plug-In . SVG Version: 6.00 Build 0)  -->
<!DOCTYPE svg PUBLIC "-//W3C//DTD SVG 1.1//EN" "http://www.w3.org/Graphics/SVG/1.1/DTD/svg11.dtd">
<svg version="1.1" id="圖層_1" xmlns="http://www.w3.org/2000/svg" xmlns:xlink="http://www.w3.org/1999/xlink" x="0px" y="0px"
	 width="26px" height="26px" viewBox="0 0 26 26" enable-background="new 0 0 26 26" xml:space="preserve">
<g>
	<g>
		<path fill="#00B2FF" d="M13,23.998L13,23.998C6.925,23.998,2,19.074,2,13l0,0C2,6.925,6.925,2,13,2l0,0C19.075,2,24,6.925,24,13
			l0,0C24,19.074,19.075,23.998,13,23.998z"/>
	</g>
	<g>
		<g>
			<path fill="#FFFFFF" d="M18.8,13.356c-0.253,0-0.458,0.205-0.458,0.459c0,2.944-2.396,5.341-5.342,5.341
				s-5.341-2.396-5.341-5.341c0-2.826,2.209-5.143,4.99-5.324l-1.076,1.076c-0.179,0.18-0.179,0.471,0,0.648
				c0.09,0.09,0.207,0.135,0.324,0.135s0.234-0.045,0.324-0.135l1.755-1.753c0.179-0.18,0.179-0.468,0-0.648l-1.755-1.753
				c-0.179-0.18-0.469-0.18-0.648,0c-0.179,0.18-0.179,0.469,0,0.648l0.878,0.876c-3.194,0.279-5.709,2.964-5.709,6.23
				c0,3.45,2.808,6.257,6.258,6.257c3.451,0,6.258-2.807,6.258-6.257C19.258,13.562,19.053,13.356,18.8,13.356z"/>
			<path fill="#FFFFFF" d="M13,20.322c-3.589,0-6.508-2.918-6.508-6.507c0-3.168,2.343-5.89,5.423-6.412l-0.519-0.52
				c-0.134-0.132-0.207-0.31-0.207-0.5s0.073-0.367,0.207-0.5c0.269-0.27,0.736-0.268,1.003,0l1.754,1.753
				c0.275,0.275,0.275,0.724,0.001,1.001l-1.756,1.753c-0.268,0.268-0.734,0.268-1.002,0c-0.275-0.275-0.275-0.725-0.001-1.001
				l0.553-0.553c-2.315,0.488-4.039,2.551-4.039,4.977c0,2.806,2.284,5.091,5.091,5.091c2.808,0,5.092-2.285,5.092-5.091
				c0-0.391,0.317-0.709,0.708-0.709s0.708,0.318,0.708,0.709C19.508,17.404,16.589,20.322,13,20.322z M11.897,6.176
				c-0.056,0-0.107,0.021-0.147,0.063c-0.081,0.08-0.081,0.213,0,0.293l1.257,1.257l-0.534,0.047c-3.073,0.268-5.48,2.896-5.48,5.98
				c0,3.312,2.695,6.007,6.008,6.007s6.008-2.695,6.008-6.007c0-0.115-0.094-0.209-0.208-0.209s-0.208,0.094-0.208,0.209
				c0,3.083-2.509,5.591-5.592,5.591s-5.591-2.508-5.591-5.591c0-2.934,2.295-5.383,5.224-5.572l0.663-0.044L11.75,9.745
				c-0.081,0.08-0.081,0.213,0,0.295c0.08,0.08,0.215,0.08,0.295,0L13.8,8.286c0.081-0.082,0.081-0.214,0-0.294l-1.755-1.753
				C12.005,6.197,11.953,6.176,11.897,6.176z"/>
		</g>
		<rect x="3.833" y="3.833" fill="none" width="18.334" height="18.333"/>
	</g>
</g>
</svg>
