<?xml version="1.0" encoding="utf-8"?>
<!-- Generator: Adobe Illustrator 16.0.0, SVG Export Plug-In . SVG Version: 6.00 Build 0)  -->
<!DOCTYPE svg PUBLIC "-//W3C//DTD SVG 1.1//EN" "http://www.w3.org/Graphics/SVG/1.1/DTD/svg11.dtd">
<svg version="1.1" id="圖層_1" xmlns="http://www.w3.org/2000/svg" xmlns:xlink="http://www.w3.org/1999/xlink" x="0px" y="0px"
	 width="25px" height="25px" viewBox="0 0 25 25" enable-background="new 0 0 25 25" xml:space="preserve">
<g>
	<g>
		<g>
			<path fill="#FFFFFF" d="M5.462,19.922c0.238,0,0.432-0.193,0.432-0.434v-1.689c0-0.24-0.193-0.434-0.432-0.434
				c-0.239,0-0.433,0.193-0.433,0.434v1.689C5.03,19.729,5.223,19.922,5.462,19.922z"/>
			<path fill="#FFFFFF" d="M7.051,19.922c0.239,0,0.433-0.193,0.433-0.434v-3.73c0-0.238-0.193-0.432-0.433-0.432
				s-0.433,0.193-0.433,0.432v3.73C6.619,19.729,6.812,19.922,7.051,19.922z"/>
			<path fill="#FFFFFF" d="M8.602,19.922c0.238,0,0.433-0.193,0.433-0.434v-2.465c0-0.238-0.194-0.432-0.433-0.432
				c-0.239,0-0.433,0.193-0.433,0.432v2.465C8.169,19.729,8.363,19.922,8.602,19.922z"/>
			<path fill="#FFFFFF" d="M11.531,19.922c0.238,0,0.433-0.193,0.433-0.434v-3.73c0-0.238-0.194-0.432-0.433-0.432
				c-0.239,0-0.433,0.193-0.433,0.432v3.73C11.098,19.729,11.292,19.922,11.531,19.922z"/>
			<path fill="#FFFFFF" d="M13.292,16.592c-0.238,0-0.433,0.193-0.433,0.432v2.465c0,0.24,0.194,0.434,0.433,0.434
				c0.239,0,0.434-0.193,0.434-0.434v-2.465C13.725,16.786,13.531,16.592,13.292,16.592z"/>
			<path fill="#FFFFFF" d="M10.152,19.922c0.239,0,0.433-0.193,0.433-0.434v-5.078c0-0.24-0.193-0.434-0.433-0.434
				s-0.433,0.193-0.433,0.434v5.078C9.719,19.729,9.913,19.922,10.152,19.922z"/>
			<path fill="#FFFFFF" d="M15.686,13.549c2.326,0,4.217-1.891,4.217-4.217c0-2.325-1.891-4.217-4.217-4.217
				s-4.219,1.892-4.219,4.217C11.467,11.658,13.36,13.549,15.686,13.549z M15.686,5.98v3.351h3.352v0.001
				c0,1.849-1.504,3.353-3.352,3.353c-1.85,0-3.354-1.504-3.354-3.353C12.333,7.484,13.836,5.98,15.686,5.98z"/>
		</g>
		<g>
			<path fill="#FFFFFF" d="M19.954,22.014H5.047c-1.136,0-2.06-0.924-2.06-2.061V5.047c0-1.136,0.924-2.06,2.06-2.06h14.906
				c1.135,0,2.06,0.924,2.06,2.06v14.906C22.013,21.09,21.088,22.014,19.954,22.014z M5.047,4.022c-0.565,0-1.025,0.46-1.025,1.025
				v14.906c0,0.566,0.46,1.025,1.025,1.025h14.906c0.564,0,1.025-0.459,1.025-1.025V5.047c0-0.565-0.461-1.025-1.025-1.025H5.047z"
				/>
		</g>
	</g>
	<rect x="0" y="0" fill="none" width="25" height="25"/>
</g>
</svg>
