<?xml version="1.0" encoding="utf-8"?>
<!-- Generator: Adobe Illustrator 22.0.1, SVG Export Plug-In . SVG Version: 6.00 Build 0)  -->
<svg version="1.1" id="圖層_1" xmlns="http://www.w3.org/2000/svg" xmlns:xlink="http://www.w3.org/1999/xlink" x="0px" y="0px"
	 viewBox="0 0 19 19" style="enable-background:new 0 0 19 19;" xml:space="preserve">
<style type="text/css">
	.st0{fill:#575757;}
	.st1{fill:none;stroke:#575757;stroke-width:3;stroke-linecap:round;stroke-miterlimit:10;}
	.st2{fill:none;stroke:#5F5E63;stroke-width:1.7;stroke-linecap:round;stroke-linejoin:round;stroke-miterlimit:10;}
	.st3{fill:#5F5E63;}
	.st4{fill:none;stroke:#B3B3B3;stroke-width:1.7;stroke-linecap:round;stroke-miterlimit:10;}
	.st5{fill:#B3B3B3;}
	.st6{fill:none;}
	.st7{fill:none;stroke:#5F5E63;stroke-linecap:round;stroke-linejoin:round;stroke-miterlimit:10;}
	.st8{fill:#FFFFFF;}
	.st9{fill:#CCCCCC;}
	.st10{fill:none;stroke:#575757;stroke-linecap:round;stroke-miterlimit:10;}
	.st11{fill:none;stroke:#575757;stroke-width:1.7;stroke-linecap:round;stroke-miterlimit:10;}
	.st12{fill:none;stroke:#575757;stroke-width:1.7;stroke-miterlimit:10;}
	.st13{fill:#666666;}
	.st14{fill:#808080;}
	.st15{fill:#E6E6E6;}
	.st16{fill:#999999;}
	.st17{fill:#F2F2F2;}
	.st18{fill:none;stroke:#FFFFFF;stroke-width:2;stroke-miterlimit:10;}
	.st19{fill:none;stroke:#FFFFFF;stroke-width:3;stroke-miterlimit:10;}
	.st20{fill:none;stroke:#575757;stroke-width:1.3;stroke-miterlimit:10;}
</style>
<g>
	<path class="st6" d="M14.8,14.8c-0.1,0-0.2,0.1-0.2,0.1c0,0,0,0.1,0,0.1l0.1,0.1l0.1-0.1c0,0,0-0.1,0-0.1c0-0.1,0-0.1,0-0.1
		C14.9,14.8,14.9,14.8,14.8,14.8z"/>
	<path class="st0" d="M18.3,12.5h-1.2v-0.9c0-1.3-1-2.3-2.3-2.3s-2.3,1-2.3,2.3v0.9h-1.2c-0.4,0-0.7,0.3-0.7,0.7v4.6
		c0,0.4,0.3,0.7,0.7,0.7h7c0.4,0,0.7-0.3,0.7-0.7v-4.6C19,12.8,18.7,12.5,18.3,12.5z M15.5,15.6v0.8c0,0.2-0.1,0.3-0.2,0.4L15,16.9
		c-0.1,0-0.1,0.1-0.2,0.1s-0.1,0-0.2-0.1l-0.3-0.2c-0.1-0.1-0.2-0.2-0.2-0.4v-0.8c-0.2-0.2-0.2-0.4-0.2-0.7c0-0.5,0.4-0.9,1-0.9
		c0,0,0,0,0,0c0.5,0,1,0.4,1,1C15.8,15.2,15.7,15.4,15.5,15.6z M16.1,12.5h-2.6v-0.9c0-0.7,0.6-1.3,1.3-1.3s1.3,0.6,1.3,1.3V12.5z"
		/>
	<path class="st0" d="M9.7,8.5c0.3,0,0.5-0.2,0.5-0.5V5.4c0-0.3-0.2-0.5-0.5-0.5S9.2,5.1,9.2,5.4V8C9.2,8.2,9.4,8.5,9.7,8.5z"/>
	<path class="st0" d="M3.9,7.7c0.3,0,0.5-0.2,0.5-0.5V4.6c0-0.3-0.2-0.5-0.5-0.5S3.4,4.4,3.4,4.6v2.6C3.4,7.5,3.7,7.7,3.9,7.7z"/>
	<path class="st0" d="M5.8,7.7c0.3,0,0.5-0.2,0.5-0.5V4.6c0-0.3-0.2-0.5-0.5-0.5S5.3,4.4,5.3,4.6v2.6C5.3,7.5,5.6,7.7,5.8,7.7z"/>
	<path class="st0" d="M7.7,7.7c0.3,0,0.5-0.2,0.5-0.5V4.6c0-0.3-0.2-0.5-0.5-0.5S7.2,4.4,7.2,4.6v2.6C7.2,7.5,7.5,7.7,7.7,7.7z"/>
	<path class="st0" d="M11.3,11.7h0.4v-0.1c0-0.3,0-0.5,0.1-0.7c-0.3-0.5-0.9-0.9-1.5-0.9h-6c-0.9,0-1.7,0.8-1.7,1.7v2.6
		c0,0.9,0.8,1.7,1.7,1.7h5.5v-2.7C9.8,12.4,10.5,11.7,11.3,11.7z"/>
	<path class="st0" d="M9.8,16.8H1.7V2.2h7.1c0,0,0.1,0.1,0.2,0.1l3.9,4v2.8c0.5-0.4,1.1-0.6,1.7-0.7V6.1c0,0,0-0.3-0.5-0.9l-3.9-4
		c-0.7-0.7-1-0.7-1-0.7H0.9C0.4,0.5,0,0.9,0,1.4v16.2c0,0.5,0.4,0.9,0.9,0.9H10c-0.1-0.2-0.2-0.5-0.2-0.7V16.8z"/>
	<path class="st8" d="M14.8,14C14.8,14,14.8,14,14.8,14c-0.5,0-0.9,0.4-1,0.9c0,0.3,0.1,0.5,0.2,0.7v0.8c0,0.2,0.1,0.3,0.2,0.4
		l0.3,0.2c0.1,0,0.1,0.1,0.2,0.1s0.1,0,0.2-0.1l0.3-0.2c0.1-0.1,0.2-0.2,0.2-0.4v-0.8c0.1-0.2,0.2-0.4,0.2-0.6
		C15.8,14.4,15.3,14,14.8,14z"/>
</g>
</svg>
