<?xml version="1.0" encoding="utf-8"?>
<!-- Generator: Adobe Illustrator 22.0.1, SVG Export Plug-In . SVG Version: 6.00 Build 0)  -->
<svg version="1.1" id="圖層_1" xmlns="http://www.w3.org/2000/svg" xmlns:xlink="http://www.w3.org/1999/xlink" x="0px" y="0px"
	 viewBox="0 0 19 19" style="enable-background:new 0 0 19 19;" xml:space="preserve">
<style type="text/css">
	.st0{fill:#575757;}
	.st1{fill:none;stroke:#575757;stroke-width:3;stroke-linecap:round;stroke-miterlimit:10;}
	.st2{fill:none;stroke:#5F5E63;stroke-width:1.7;stroke-linecap:round;stroke-linejoin:round;stroke-miterlimit:10;}
	.st3{fill:#5F5E63;}
	.st4{fill:none;stroke:#B3B3B3;stroke-width:1.7;stroke-linecap:round;stroke-miterlimit:10;}
	.st5{fill:#B3B3B3;}
	.st6{fill:none;}
	.st7{fill:none;stroke:#5F5E63;stroke-linecap:round;stroke-linejoin:round;stroke-miterlimit:10;}
	.st8{fill:#FFFFFF;}
	.st9{fill:none;stroke:#575757;stroke-linecap:round;stroke-miterlimit:10;}
	.st10{fill:none;stroke:#575757;stroke-width:1.7;stroke-linecap:round;stroke-miterlimit:10;}
	.st11{fill:none;stroke:#575757;stroke-width:1.7;stroke-miterlimit:10;}
	.st12{fill:#666666;}
	.st13{fill:#CCCCCC;}
	.st14{fill:#808080;}
	.st15{fill:#E6E6E6;}
	.st16{fill:#999999;}
	.st17{fill:#F2F2F2;}
	.st18{fill:none;stroke:#FFFFFF;stroke-width:2;stroke-miterlimit:10;}
</style>
<path class="st0" d="M5.7,7.3c-0.7,0-1.1-0.5-1.2-1.2L3.2,6.3c0.1,1.3,1.1,2.1,2.5,2.1C7.1,8.4,8,7.6,8,6.3c0-0.6-0.3-1.1-0.8-1.4
	c0.5-0.3,0.7-0.7,0.7-1.4c0-1.2-0.9-2.1-2.3-2.1c-1.4,0-2.3,0.9-2.4,2.1l1.2,0.3C4.6,3,5,2.6,5.7,2.6c0.6,0,1,0.4,1,0.9
	c0,0.5-0.3,0.8-1,0.8H4.8v1.2h1c0.7,0,1,0.3,1,0.8C6.8,6.9,6.3,7.3,5.7,7.3z"/>
<path class="st0" d="M15.8,5c0-0.2,0-0.3,0-0.6h-3.7v1.2h2.3c-0.2,1-1,1.5-2,1.5c-1.2,0-2.2-1-2.2-2.2c0-1.3,0.9-2.2,2.1-2.2
	c0.7,0,1.5,0.2,2,1.2l1.2-0.4c-0.5-1.4-1.8-2-3.2-2c-2,0-3.5,1.5-3.5,3.5c0,2,1.6,3.5,3.6,3.5C14.4,8.4,15.8,6.9,15.8,5z"/>
<polygon class="st0" points="10.3,15.1 11.9,15.1 11.9,18.9 14.1,18.9 14.1,15.1 15.8,15.1 13,11.8 "/>
<polygon class="st0" points="7.1,11.8 4.9,11.8 4.9,15.6 3.3,15.6 6,18.9 8.8,15.6 7.1,15.6 "/>
</svg>
