<?xml version="1.0" encoding="utf-8"?>
<!-- Generator: Adobe Illustrator 22.0.1, SVG Export Plug-In . SVG Version: 6.00 Build 0)  -->
<svg version="1.1" id="圖層_1" xmlns="http://www.w3.org/2000/svg" xmlns:xlink="http://www.w3.org/1999/xlink" x="0px" y="0px"
	 viewBox="0 0 22 19" style="enable-background:new 0 0 22 19;" xml:space="preserve">
<style type="text/css">
	.st0{fill:#575757;}
	.st1{fill:none;stroke:#575757;stroke-width:3;stroke-linecap:round;stroke-miterlimit:10;}
	.st2{fill:none;stroke:#5F5E63;stroke-width:1.7;stroke-linecap:round;stroke-linejoin:round;stroke-miterlimit:10;}
	.st3{fill:#5F5E63;}
	.st4{fill:none;stroke:#B3B3B3;stroke-width:1.7;stroke-linecap:round;stroke-miterlimit:10;}
	.st5{fill:#B3B3B3;}
	.st6{fill:none;}
	.st7{fill:none;stroke:#5F5E63;stroke-linecap:round;stroke-linejoin:round;stroke-miterlimit:10;}
	.st8{fill:#FFFFFF;}
	.st9{fill:#CCCCCC;}
	.st10{fill:none;stroke:#575757;stroke-linecap:round;stroke-miterlimit:10;}
	.st11{fill:none;stroke:#575757;stroke-width:1.7;stroke-linecap:round;stroke-miterlimit:10;}
	.st12{fill:none;stroke:#575757;stroke-width:1.7;stroke-miterlimit:10;}
	.st13{fill:#666666;}
	.st14{fill:#808080;}
	.st15{fill:#E6E6E6;}
	.st16{fill:#999999;}
	.st17{fill:#F2F2F2;}
	.st18{fill:none;stroke:#FFFFFF;stroke-width:2;stroke-miterlimit:10;}
	.st19{fill:none;stroke:#FFFFFF;stroke-width:3;stroke-miterlimit:10;}
	.st20{fill:none;stroke:#575757;stroke-width:1.3;stroke-miterlimit:10;}
</style>
<path class="st0" d="M20.5,0h-13C6.7,0,6,0.7,6,1.5v8C6,10.3,6.7,11,7.5,11h13c0.8,0,1.5-0.7,1.5-1.5v-8C22,0.7,21.3,0,20.5,0z"/>
<path class="st0" d="M11.8,17c0,0.2-0.1,0.3-0.3,0.3H2c-0.2,0-0.3-0.1-0.3-0.3V2c0-0.2,0.1-0.3,0.3-0.3h3V1.5C5,0.9,5.2,0.4,5.5,0H2
	C0.9,0,0,0.9,0,2v15c0,1.1,0.9,2,2,2h9.5c1.1,0,2-0.9,2-2v-5h-1.7V17z"/>
<path class="st5" d="M5,9.5V2.8H3.1v13.3h7.3V12H7.5C6.1,12,5,10.9,5,9.5z"/>
<rect class="st6" width="22" height="19"/>
</svg>
