<?xml version="1.0" encoding="utf-8"?>
<!-- Generator: Adobe Illustrator 22.0.1, SVG Export Plug-In . SVG Version: 6.00 Build 0)  -->
<svg version="1.1" id="圖層_1" xmlns="http://www.w3.org/2000/svg" xmlns:xlink="http://www.w3.org/1999/xlink" x="0px" y="0px"
	 viewBox="0 0 19 19" style="enable-background:new 0 0 19 19;" xml:space="preserve">
<style type="text/css">
	.st0{fill:#575757;}
	.st1{fill:none;stroke:#575757;stroke-width:3;stroke-linecap:round;stroke-miterlimit:10;}
	.st2{fill:none;stroke:#5F5E63;stroke-width:1.7;stroke-linecap:round;stroke-linejoin:round;stroke-miterlimit:10;}
	.st3{fill:#5F5E63;}
	.st4{fill:none;stroke:#B3B3B3;stroke-width:1.7;stroke-linecap:round;stroke-miterlimit:10;}
	.st5{fill:#B3B3B3;}
	.st6{fill:none;}
	.st7{fill:none;stroke:#5F5E63;stroke-linecap:round;stroke-linejoin:round;stroke-miterlimit:10;}
	.st8{fill:#FFFFFF;}
	.st9{fill:none;stroke:#575757;stroke-linecap:round;stroke-miterlimit:10;}
	.st10{fill:none;stroke:#575757;stroke-width:1.7;stroke-linecap:round;stroke-miterlimit:10;}
	.st11{fill:none;stroke:#575757;stroke-width:1.7;stroke-miterlimit:10;}
	.st12{fill:#666666;}
	.st13{fill:#CCCCCC;}
	.st14{fill:#808080;}
	.st15{fill:#E6E6E6;}
	.st16{fill:#999999;}
	.st17{fill:#F2F2F2;}
	.st18{fill:none;stroke:#FFFFFF;stroke-width:2;stroke-miterlimit:10;}
</style>
<g>
	<g>
		<path class="st3" d="M6.3,7.3C6.1,7.3,5.8,7.2,5.6,7L2.8,4.2c-0.4-0.4-0.4-1,0-1.4s1-0.4,1.4,0L7,5.6C7.4,6,7.4,6.7,7,7
			C6.9,7.2,6.6,7.3,6.3,7.3z"/>
	</g>
	<g>
		<path class="st5" d="M15.5,16.5c-0.3,0-0.5-0.1-0.7-0.3L12,13.4c-0.4-0.4-0.4-1,0-1.4c0.4-0.4,1-0.4,1.4,0l2.8,2.8
			c0.4,0.4,0.4,1,0,1.4C16,16.4,15.7,16.5,15.5,16.5z"/>
	</g>
	<g>
		<path class="st12" d="M9.5,6c-0.6,0-1-0.4-1-1v-4c0-0.6,0.4-1,1-1s1,0.4,1,1v4C10.5,5.6,10.1,6,9.5,6z"/>
	</g>
	<g>
		<path class="st13" d="M9.5,18.9c-0.6,0-1-0.4-1-1v-4c0-0.6,0.4-1,1-1s1,0.4,1,1v4C10.5,18.5,10.1,18.9,9.5,18.9z"/>
	</g>
	<g>
		<path class="st14" d="M12.7,7.3c-0.3,0-0.5-0.1-0.7-0.3c-0.4-0.4-0.4-1,0-1.4l2.8-2.8c0.4-0.4,1-0.4,1.4,0c0.4,0.4,0.4,1,0,1.4
			L13.4,7C13.2,7.2,12.9,7.3,12.7,7.3z"/>
	</g>
	<g>
		<path class="st15" d="M3.5,16.5c-0.3,0-0.5-0.1-0.7-0.3c-0.4-0.4-0.4-1,0-1.4L5.6,12c0.4-0.4,1-0.4,1.4,0c0.4,0.4,0.4,1,0,1.4
			l-2.8,2.8C4,16.4,3.8,16.5,3.5,16.5z"/>
	</g>
	<g>
		<path class="st16" d="M14,10.5c-0.6,0-1-0.4-1-1s0.4-1,1-1l4,0c0.6,0,1,0.4,1,1s-0.4,1-1,1L14,10.5z"/>
	</g>
	<g>
		<path class="st17" d="M1.1,10.5c-0.6,0-1-0.4-1-1s0.4-1,1-1l4,0c0.6,0,1,0.4,1,1s-0.4,1-1,1L1.1,10.5z"/>
	</g>
</g>
</svg>
