<?xml version="1.0" encoding="utf-8"?>
<!-- Generator: Adobe Illustrator 22.0.1, SVG Export Plug-In . SVG Version: 6.00 Build 0)  -->
<svg version="1.1" id="圖層_1" xmlns="http://www.w3.org/2000/svg" xmlns:xlink="http://www.w3.org/1999/xlink" x="0px" y="0px"
	 viewBox="0 0 19 19" style="enable-background:new 0 0 19 19;" xml:space="preserve">
<style type="text/css">
	.st0{fill:#575757;}
	.st1{fill:none;stroke:#575757;stroke-width:3;stroke-linecap:round;stroke-miterlimit:10;}
	.st2{fill:none;stroke:#5F5E63;stroke-width:1.7;stroke-linecap:round;stroke-linejoin:round;stroke-miterlimit:10;}
	.st3{fill:#5F5E63;}
	.st4{fill:none;stroke:#B3B3B3;stroke-width:1.7;stroke-linecap:round;stroke-miterlimit:10;}
	.st5{fill:#B3B3B3;}
	.st6{fill:none;}
	.st7{fill:none;stroke:#5F5E63;stroke-linecap:round;stroke-linejoin:round;stroke-miterlimit:10;}
	.st8{fill:#FFFFFF;}
	.st9{fill:none;stroke:#575757;stroke-linecap:round;stroke-miterlimit:10;}
	.st10{fill:none;stroke:#575757;stroke-width:1.7;stroke-linecap:round;stroke-miterlimit:10;}
	.st11{fill:none;stroke:#575757;stroke-width:1.7;stroke-miterlimit:10;}
	.st12{fill:#666666;}
	.st13{fill:#CCCCCC;}
	.st14{fill:#808080;}
	.st15{fill:#E6E6E6;}
	.st16{fill:#999999;}
	.st17{fill:#F2F2F2;}
	.st18{fill:none;stroke:#FFFFFF;stroke-width:2;stroke-miterlimit:10;}
</style>
<g>
	<path class="st0" d="M11.8,8.9c0-1.2-1-2.3-2.3-2.3s-2.3,1-2.3,2.3c0,0.9,0.6,1.7,1.4,2.1v6.9c0,0.5,0.4,0.9,0.9,0.9
		s0.9-0.4,0.9-0.9V11C11.2,10.7,11.8,9.9,11.8,8.9z"/>
	<path class="st0" d="M14.9,8.7c0-3-2.4-5.4-5.4-5.4S4.1,5.7,4.1,8.7c0,1.6,0.7,3.1,2,4.2C6.3,12.9,6.5,13,6.7,13
		c0.2,0,0.5-0.1,0.7-0.3c0.3-0.4,0.2-0.9-0.1-1.2c-0.9-0.7-1.3-1.7-1.3-2.8c0-2,1.6-3.7,3.7-3.7s3.7,1.6,3.7,3.7
		c0,1.1-0.5,2.1-1.3,2.8c-0.4,0.3-0.4,0.8-0.1,1.2c0.3,0.4,0.8,0.4,1.2,0.1C14.1,11.8,14.9,10.3,14.9,8.7z"/>
	<path class="st0" d="M9.5,0.2C4.8,0.2,1,4,1,8.7c0,2.7,1.2,5.2,3.4,6.8c0.2,0.1,0.3,0.2,0.5,0.2c0.3,0,0.5-0.1,0.7-0.3
		c0.3-0.4,0.2-0.9-0.2-1.2c-1.7-1.3-2.7-3.3-2.7-5.4c0-3.7,3-6.8,6.8-6.8s6.8,3,6.8,6.8c0,2.1-1,4.1-2.7,5.4
		c-0.4,0.3-0.5,0.8-0.2,1.2c0.3,0.4,0.8,0.4,1.2,0.2c2.1-1.6,3.4-4.1,3.4-6.8C18,4,14.2,0.2,9.5,0.2z"/>
</g>
</svg>
