<?xml version="1.0" encoding="utf-8"?>
<!-- Generator: Adobe Illustrator 22.0.1, SVG Export Plug-In . SVG Version: 6.00 Build 0)  -->
<svg version="1.1" id="圖層_1" xmlns="http://www.w3.org/2000/svg" xmlns:xlink="http://www.w3.org/1999/xlink" x="0px" y="0px"
	 viewBox="0 0 19 19" style="enable-background:new 0 0 19 19;" xml:space="preserve">
<style type="text/css">
	.st0{fill:#575757;}
	.st1{fill:none;stroke:#575757;stroke-width:3;stroke-linecap:round;stroke-miterlimit:10;}
	.st2{fill:none;stroke:#5F5E63;stroke-width:1.7;stroke-linecap:round;stroke-linejoin:round;stroke-miterlimit:10;}
	.st3{fill:#5F5E63;}
	.st4{fill:none;stroke:#B3B3B3;stroke-width:1.7;stroke-linecap:round;stroke-miterlimit:10;}
	.st5{fill:#B3B3B3;}
	.st6{fill:none;}
	.st7{fill:none;stroke:#5F5E63;stroke-linecap:round;stroke-linejoin:round;stroke-miterlimit:10;}
	.st8{fill:#FFFFFF;}
	.st9{fill:#CCCCCC;}
	.st10{fill:none;stroke:#575757;stroke-linecap:round;stroke-miterlimit:10;}
	.st11{fill:none;stroke:#575757;stroke-width:1.7;stroke-linecap:round;stroke-miterlimit:10;}
	.st12{fill:none;stroke:#575757;stroke-width:1.7;stroke-miterlimit:10;}
	.st13{fill:#666666;}
	.st14{fill:#808080;}
	.st15{fill:#E6E6E6;}
	.st16{fill:#999999;}
	.st17{fill:#F2F2F2;}
	.st18{fill:none;stroke:#FFFFFF;stroke-width:2;stroke-miterlimit:10;}
	.st19{fill:none;stroke:#FFFFFF;stroke-width:3;stroke-miterlimit:10;}
	.st20{fill:none;stroke:#575757;stroke-width:1.3;stroke-miterlimit:10;}
</style>
<g>
	<path class="st9" d="M11.4,5.4V8c0,0.3,0.2,0.5,0.5,0.5s0.5-0.2,0.5-0.5V5.4c0-0.3-0.2-0.5-0.5-0.5S11.4,5.1,11.4,5.4z"/>
	<path class="st9" d="M17.6,17.7L1.5,1.6L0.2,2.9l2,2v12.7c0,0.5,0.4,0.9,0.9,0.9h12.7l0.5,0.5L17.6,17.7z M3.9,16.8V6.6l3.3,3.3
		H6.5c-0.9,0-1.7,0.8-1.7,1.7v2.6c0,0.9,0.8,1.7,1.7,1.7h6c0.2,0,0.4,0,0.6-0.1l1,1H3.9z"/>
	<path class="st9" d="M11.1,2.2c0,0,0.1,0.1,0.2,0.1l3.9,4v6.1l1.7,1.7V6.1c0,0,0-0.3-0.5-0.9l-3.9-4c-0.7-0.7-1-0.7-1-0.7H3.1
		c0,0,0,0,0,0l1.7,1.7H11.1z"/>
	<path class="st9" d="M7.6,4.6V5l1,1V4.6c0-0.3-0.2-0.5-0.5-0.5S7.6,4.4,7.6,4.6z"/>
	<path class="st9" d="M9.5,4.6v2.3l0.7,0.7c0.1-0.1,0.3-0.2,0.3-0.4V4.6c0-0.3-0.2-0.5-0.5-0.5S9.5,4.4,9.5,4.6z"/>
</g>
</svg>
