<?xml version="1.0" encoding="utf-8"?>
<!-- Generator: Adobe Illustrator 22.0.1, SVG Export Plug-In . SVG Version: 6.00 Build 0)  -->
<svg version="1.1" id="圖層_1" xmlns="http://www.w3.org/2000/svg" xmlns:xlink="http://www.w3.org/1999/xlink" x="0px" y="0px"
	 viewBox="0 0 19 19" style="enable-background:new 0 0 19 19;" xml:space="preserve">
<style type="text/css">
	.st0{fill:#575757;}
	.st1{fill:none;stroke:#575757;stroke-width:3;stroke-linecap:round;stroke-miterlimit:10;}
	.st2{fill:none;stroke:#5F5E63;stroke-width:1.7;stroke-linecap:round;stroke-linejoin:round;stroke-miterlimit:10;}
	.st3{fill:#5F5E63;}
	.st4{fill:none;stroke:#B3B3B3;stroke-width:1.7;stroke-linecap:round;stroke-miterlimit:10;}
	.st5{fill:#B3B3B3;}
	.st6{fill:none;}
	.st7{fill:none;stroke:#5F5E63;stroke-linecap:round;stroke-linejoin:round;stroke-miterlimit:10;}
	.st8{fill:#FFFFFF;}
	.st9{fill:#CCCCCC;}
	.st10{fill:none;stroke:#575757;stroke-linecap:round;stroke-miterlimit:10;}
	.st11{fill:none;stroke:#575757;stroke-width:1.7;stroke-linecap:round;stroke-miterlimit:10;}
	.st12{fill:none;stroke:#575757;stroke-width:1.7;stroke-miterlimit:10;}
	.st13{fill:#666666;}
	.st14{fill:#808080;}
	.st15{fill:#E6E6E6;}
	.st16{fill:#999999;}
	.st17{fill:#F2F2F2;}
	.st18{fill:none;stroke:#FFFFFF;stroke-width:2;stroke-miterlimit:10;}
	.st19{fill:none;stroke:#FFFFFF;stroke-width:3;stroke-miterlimit:10;}
	.st20{fill:none;stroke:#575757;stroke-width:1.3;stroke-miterlimit:10;}
</style>
<g>
	<g>
		<path class="st0" d="M5.1,7.7c0.3,0,0.5-0.2,0.5-0.5V4.6c0-0.3-0.2-0.5-0.5-0.5S4.6,4.4,4.6,4.6v2.6C4.6,7.5,4.8,7.7,5.1,7.7z"/>
		<path class="st0" d="M7,7.7c0.3,0,0.5-0.2,0.5-0.5V4.6c0-0.3-0.2-0.5-0.5-0.5S6.5,4.4,6.5,4.6v2.6C6.5,7.5,6.7,7.7,7,7.7z"/>
	</g>
	<path class="st0" d="M6.2,16.8H2.9V2.2H10c0,0,0.1,0.1,0.2,0.1l3.9,4v0.4c0.6,0.2,1.2,0.5,1.7,0.8V6.1c0,0,0-0.3-0.5-0.9l-3.9-4
		c-0.7-0.7-1-0.7-1-0.7H2c-0.5,0-0.9,0.4-0.9,0.9v16.2c0,0.5,0.4,0.9,0.9,0.9h5.7C7.1,18,6.6,17.4,6.2,16.8z"/>
	<g>
		<path class="st0" d="M11.3,5.4c0-0.3-0.2-0.5-0.5-0.5s-0.5,0.2-0.5,0.5v1.3c0.3-0.1,0.7-0.1,1-0.2V5.4z"/>
		<path class="st0" d="M9.4,4.6c0-0.3-0.2-0.5-0.5-0.5S8.4,4.4,8.4,4.6v2.6c0,0.1,0,0.2,0.1,0.2C8.8,7.3,9.1,7.1,9.4,7V4.6z"/>
		<path class="st0" d="M6.1,9.9H5.4c-0.9,0-1.7,0.8-1.7,1.7v2.6c0,0.9,0.8,1.7,1.7,1.7h0.3c-0.4-0.8-0.6-1.7-0.6-2.7
			C5.2,12,5.5,10.9,6.1,9.9z"/>
	</g>
	<g>
		<path class="st0" d="M11.9,7.2C8.7,7.2,6,9.8,6,13.1S8.7,19,11.9,19s5.9-2.6,5.9-5.9S15.2,7.2,11.9,7.2z M11.9,17.7
			c-2.5,0-4.6-2.1-4.6-4.6s2.1-4.6,4.6-4.6s4.6,2.1,4.6,4.6S14.5,17.7,11.9,17.7z"/>
		<g>
			<path class="st0" d="M12.4,15.4h-1c-0.1,0-0.2,0.1-0.2,0.2v1c0,0.1,0.1,0.2,0.2,0.2h1c0.1,0,0.2-0.1,0.2-0.2v-1
				C12.6,15.5,12.5,15.4,12.4,15.4z"/>
			<path class="st0" d="M12.5,9.4h-1.1c-0.1,0-0.2,0.1-0.2,0.2v1.6l0.3,3.7c0,0.1,0.1,0.2,0.2,0.2h0.6c0.1,0,0.2-0.1,0.2-0.2
				l0.2-3.7l0-1.6C12.7,9.5,12.6,9.4,12.5,9.4z"/>
		</g>
	</g>
</g>
</svg>
