<?xml version="1.0" encoding="utf-8"?>
<!-- Generator: Adobe Illustrator 22.0.1, SVG Export Plug-In . SVG Version: 6.00 Build 0)  -->
<svg version="1.1" id="圖層_1" xmlns="http://www.w3.org/2000/svg" xmlns:xlink="http://www.w3.org/1999/xlink" x="0px" y="0px"
	 viewBox="0 0 19 19" style="enable-background:new 0 0 19 19;" xml:space="preserve">
<style type="text/css">
	.st0{fill:#575757;}
	.st1{fill:none;stroke:#575757;stroke-width:3;stroke-linecap:round;stroke-miterlimit:10;}
	.st2{fill:none;stroke:#5F5E63;stroke-width:1.7;stroke-linecap:round;stroke-linejoin:round;stroke-miterlimit:10;}
	.st3{fill:#5F5E63;}
	.st4{fill:none;stroke:#B3B3B3;stroke-width:1.7;stroke-linecap:round;stroke-miterlimit:10;}
	.st5{fill:#B3B3B3;}
	.st6{fill:none;}
	.st7{fill:none;stroke:#5F5E63;stroke-linecap:round;stroke-linejoin:round;stroke-miterlimit:10;}
	.st8{fill:#FFFFFF;}
	.st9{fill:none;stroke:#575757;stroke-linecap:round;stroke-miterlimit:10;}
	.st10{fill:none;stroke:#575757;stroke-width:1.7;stroke-linecap:round;stroke-miterlimit:10;}
	.st11{fill:none;stroke:#575757;stroke-width:1.7;stroke-miterlimit:10;}
	.st12{fill:#666666;}
	.st13{fill:#CCCCCC;}
	.st14{fill:#808080;}
	.st15{fill:#E6E6E6;}
	.st16{fill:#999999;}
	.st17{fill:#F2F2F2;}
	.st18{fill:none;stroke:#FFFFFF;stroke-width:2;stroke-miterlimit:10;}
</style>
<g>
	<path class="st0" d="M0.7,3.3L2,4.7c-0.6,1.2-1,2.5-1,4c0,2.7,1.2,5.2,3.4,6.8c0.2,0.1,0.3,0.2,0.5,0.2c0.3,0,0.5-0.1,0.7-0.3
		c0.3-0.4,0.2-0.9-0.2-1.2c-1.7-1.3-2.7-3.3-2.7-5.4c0-1,0.2-1.9,0.6-2.7L4.4,7c-0.2,0.5-0.3,1-0.3,1.6c0,1.6,0.7,3.1,2,4.2
		C6.3,12.9,6.5,13,6.7,13c0.2,0,0.5-0.1,0.7-0.3c0.3-0.4,0.2-0.9-0.1-1.2c-0.9-0.7-1.3-1.7-1.3-2.8c0-0.1,0-0.1,0-0.2l2.8,2.8v6.7
		c0,0.5,0.4,0.8,0.9,0.8s0.9-0.4,0.9-0.8v-5l4.8,4.8l1.2-1.2L1.9,2.1L0.7,3.3z"/>
	<path class="st0" d="M8.9,6.8l2.8,2.8c0.1-0.2,0.1-0.4,0.1-0.6c0-1.2-1-2.3-2.3-2.3C9.3,6.7,9.1,6.7,8.9,6.8z"/>
	<path class="st0" d="M13.9,11.7c0.6-0.9,1-2,1-3.1c0-3-2.4-5.4-5.4-5.4c-1.1,0-2.2,0.4-3.1,1l1.2,1.2C8.2,5.2,8.8,5,9.5,5
		c2,0,3.7,1.6,3.7,3.7c0,0.7-0.2,1.3-0.5,1.8L13.9,11.7z"/>
	<path class="st0" d="M9.5,1.9c3.7,0,6.8,3,6.8,6.8c0,1.5-0.5,2.9-1.4,4.1l1.2,1.2c1.2-1.5,1.9-3.3,1.9-5.3c0-4.7-3.8-8.4-8.5-8.4
		c-2,0-3.8,0.7-5.3,1.9l1.2,1.2C6.6,2.4,8,1.9,9.5,1.9z"/>
</g>
</svg>
