<?xml version="1.0" encoding="utf-8"?>
<!-- Generator: Adobe Illustrator 22.0.1, SVG Export Plug-In . SVG Version: 6.00 Build 0)  -->
<svg version="1.1" id="圖層_1" xmlns="http://www.w3.org/2000/svg" xmlns:xlink="http://www.w3.org/1999/xlink" x="0px" y="0px"
	 viewBox="0 0 19 19" style="enable-background:new 0 0 19 19;" xml:space="preserve">
<style type="text/css">
	.st0{fill:#575757;}
	.st1{fill:none;stroke:#575757;stroke-width:3;stroke-linecap:round;stroke-miterlimit:10;}
	.st2{fill:none;stroke:#5F5E63;stroke-width:1.7;stroke-linecap:round;stroke-linejoin:round;stroke-miterlimit:10;}
	.st3{fill:#5F5E63;}
	.st4{fill:none;stroke:#B3B3B3;stroke-width:1.7;stroke-linecap:round;stroke-miterlimit:10;}
	.st5{fill:#B3B3B3;}
	.st6{fill:none;}
	.st7{fill:none;stroke:#5F5E63;stroke-linecap:round;stroke-linejoin:round;stroke-miterlimit:10;}
	.st8{fill:#FFFFFF;}
	.st9{fill:none;stroke:#575757;stroke-linecap:round;stroke-miterlimit:10;}
	.st10{fill:none;stroke:#575757;stroke-width:1.7;stroke-linecap:round;stroke-miterlimit:10;}
	.st11{fill:none;stroke:#575757;stroke-width:1.7;stroke-miterlimit:10;}
	.st12{fill:#666666;}
	.st13{fill:#CCCCCC;}
	.st14{fill:#808080;}
	.st15{fill:#E6E6E6;}
	.st16{fill:#999999;}
	.st17{fill:#F2F2F2;}
	.st18{fill:none;stroke:#FFFFFF;stroke-width:2;stroke-miterlimit:10;}
</style>
<g>
	<path class="st0" d="M11.9,8.5c0.3,0,0.5-0.2,0.5-0.5V5.4c0-0.3-0.2-0.5-0.5-0.5s-0.5,0.2-0.5,0.5V8C11.4,8.2,11.6,8.5,11.9,8.5z"
		/>
	<path class="st0" d="M6.2,7.7c0.3,0,0.5-0.2,0.5-0.5V4.6c0-0.3-0.2-0.5-0.5-0.5S5.7,4.4,5.7,4.6v2.6C5.7,7.5,5.9,7.7,6.2,7.7z"/>
	<path class="st0" d="M8.1,7.7c0.3,0,0.5-0.2,0.5-0.5V4.6c0-0.3-0.2-0.5-0.5-0.5S7.6,4.4,7.6,4.6v2.6C7.6,7.5,7.8,7.7,8.1,7.7z"/>
	<path class="st0" d="M10,7.7c0.3,0,0.5-0.2,0.5-0.5V4.6c0-0.3-0.2-0.5-0.5-0.5S9.5,4.4,9.5,4.6v2.6C9.5,7.5,9.7,7.7,10,7.7z"/>
	<path class="st0" d="M4.8,11.6v2.6c0,0.9,0.8,1.7,1.7,1.7h6c0.9,0,1.7-0.8,1.7-1.7v-2.6c0-0.9-0.8-1.7-1.7-1.7h-6
		C5.6,9.9,4.8,10.7,4.8,11.6z"/>
	<path class="st0" d="M16.3,5.2l-3.9-4c-0.7-0.7-1-0.7-1-0.7H3.1c-0.5,0-0.9,0.4-0.9,0.9v16.2c0,0.5,0.4,0.9,0.9,0.9h12.8
		c0.5,0,0.9-0.4,0.9-0.9V6.1C16.8,6.1,16.8,5.7,16.3,5.2z M15.1,16.8H3.9V2.2h7.1c0,0,0.1,0.1,0.2,0.1l3.9,4V16.8z"/>
</g>
</svg>
