<?xml version="1.0" standalone="no"?><!DOCTYPE svg PUBLIC "-//W3C//DTD SVG 1.1//EN" "http://www.w3.org/Graphics/SVG/1.1/DTD/svg11.dtd"><svg t="1610614249360" class="icon" viewBox="0 0 1024 1024" version="1.1" xmlns="http://www.w3.org/2000/svg" p-id="5054" width="64" height="64" xmlns:xlink="http://www.w3.org/1999/xlink"><defs><style type="text/css"></style></defs><path d="M272 464h32v-128h-32a64 64 0 0 0 0 128zM912 336h-32v128h32a64 64 0 0 0 0-128z" fill="#E0C494" p-id="5055"></path><path d="M992 873.184a175.712 175.712 0 0 0-67.04-29.984l-154.08-32.48c-4.16-0.8-8-2.08-11.84-3.68H425.12c-3.84 1.6-7.84 2.88-12 3.68l-154.08 32.48c-61.28 12.8-111.2 57.28-131.04 116.8v32h864v-118.816z" fill="#62C4C3" p-id="5056"></path><path d="M758.88 807.04L591.984 896 425.12 807.04a64.448 64.448 0 0 0 38.864-59.04v-42.08h256v42.08c0 26.064 15.696 48.944 38.896 59.04z" fill="#F2DAAE" p-id="5057"></path><path d="M464 741.184C503.216 758.336 546.448 768 592 768s88.784-9.664 128-26.816V705.92H464v35.264z" fill="#E0C494" p-id="5058"></path><path d="M688 896h208v64H688z" fill="#42A5B2" p-id="5059"></path><path d="M720 705.92A286.08 286.08 0 0 1 592 736c-46.08 0-89.44-10.88-128-30.08-85.76-42.56-147.2-126.56-158.24-225.92h572.48c-11.04 99.36-72.48 183.36-158.24 225.92z" fill="#62C4C3" p-id="5060"></path><path d="M880 320v16c-52.96 0-96-43.04-96-96v-16H339.36c-5.28 0-10.72-0.48-15.84-1.28-0.8-0.16-1.6-0.16-2.24-0.32-40.64-7.36-74.4-38.72-80.32-80.48a96.016 96.016 0 0 1 82.24-108.96A48.032 48.032 0 0 0 368 64h256c141.44 0 256 114.56 256 256z" fill="#EFBC2E" p-id="5061"></path><path d="M880 336v112c0 10.88-0.64 21.44-1.76 32H305.76c-1.12-10.56-1.76-21.12-1.76-32v-128c0-34.4 6.24-67.04 17.28-97.6 0.64 0.16 1.44 0.16 2.24 0.32 5.12 0.8 10.4 1.28 15.84 1.28H784v16c0 52.96 43.04 96 96 96z" fill="#F2DAAE" p-id="5062"></path><path d="M512 400a32 32 0 1 1-64.016-0.016A32 32 0 0 1 512 400zM736 400a32 32 0 1 1-64.016-0.016A32 32 0 0 1 736 400z" fill="#3A4249" p-id="5063"></path><path d="M592 896l-16-8.528V992h32v-104.528z" fill="#42A5B2" p-id="5064"></path><path d="M48 592v400h256v-144l64-112v-48a32 32 0 0 0-32-32h-32V432a32 32 0 0 0-64 0v160a32 32 0 0 0-64 0 32 32 0 0 0-64 0 32 32 0 0 0-64 0z" fill="#F2DAAE" p-id="5065"></path><path d="M208 784a64 64 0 0 1 64-64h48-16a64 64 0 0 1-64-64h96a32 32 0 0 1 32 32v48l-64 112h-32a64 64 0 0 1-64-64z" fill="#E0C494" p-id="5066"></path><path d="M208 688a32 32 0 0 0 32-32v-64a32 32 0 0 0-64 0v64a32 32 0 0 0 32 32zM144 688a32 32 0 0 0 32-32v-64a32 32 0 0 0-64 0v64a32 32 0 0 0 32 32zM80 688a32 32 0 0 0 32-32v-64a32 32 0 0 0-64 0v64a32 32 0 0 0 32 32z" fill="#E0C494" p-id="5067"></path></svg>